/* XPM */
static const char *health_0_4[] = {
/* columns rows colors chars-per-pixel */
"150 50 74 1 ",
"  c black",
". c #080909",
"X c #140604",
"o c #071219",
"O c #19191B",
"+ c #211E27",
"@ c #192121",
"# c #2A2828",
"$ c #2A2A2A",
"% c #3C3030",
"& c #303B39",
"* c #550000",
"= c #6D0508",
"- c #780C09",
"; c #631612",
": c #751518",
"> c #6C1F22",
", c #5E2826",
"< c #434243",
"1 c gray32",
"2 c #606060",
"3 c gray43",
"4 c #7B7B7B",
"5 c #850000",
"6 c #840604",
"7 c #9E0000",
"8 c #980908",
"9 c #A40000",
"0 c #A60000",
"q c #B30E11",
"w c #A71016",
"e c #C60000",
"r c #CE0105",
"t c #C70B0E",
"y c #D30000",
"u c #DB0000",
"i c #D60F16",
"p c #C41015",
"a c #DF1114",
"s c #E00000",
"d c #E20002",
"f c #E40000",
"g c #F00300",
"h c #D93232",
"j c #E24A44",
"k c #E75B59",
"l c #F77C7B",
"z c #7F8788",
"x c #8E8F8E",
"c c #9B9D9F",
"v c #A8AAAA",
"b c #AFB2AE",
"n c #B1B1B0",
"m c #B2B1BD",
"M c #B2BBBB",
"N c #B2BBBD",
"B c #F68583",
"V c #FF9898",
"C c #FD9EA5",
"Z c #F9A1A1",
"A c #B3C5C3",
"S c gray79",
"D c #CCD5D9",
"F c #CCD5DD",
"G c #D4D4D5",
"H c #D9D5DC",
"J c #D1DDDD",
"K c #D6DCE4",
"L c #E6E6E6",
"P c #F2F4F6",
"I c gray99",
"U c #FDFFFC",
"Y c white",
"T c None",
/* pixels */
"TTTTTTTTTTTTTTTTTTTTTTTTTTTTTTTTTTTTTTTTTTTTTTTTTTTTTTTTTTTTTTTTTTTTTTTTTTTTTTTTTTTTTTTTTTTTTTTTTTTTTTTTTTTTTTTTTTTTTTTTTTTTTTTTTTTTTTTTTTTTTTTTTTTTTT",
"TTTTTTTTTTTTTTTTTTTTTTTTTTTTTTTTTTTTTTTTTTTTTTTTTTTTTTTTTTTTTTTTTTTTTTTTTTTTTTTTTTTTTTTTTTTTTTTTTTTTTTTTTTTTTTTTTTTTTTTTTTTTTTTTTTTTTTTTTTTTTTTTTTTTTT",
"TTTTTTTTTTTTTTTTTTTTTTTTTTTTTTTTTTTTTTTTTTTTTTTTTTTTTTTTTTTTTTTTTTTTTTTTTTTTTTTTTTTTTTTTTTTTTTTTTTTTTTTTTTTTTTTTTTTTTTTTTTTTTTTTTTTTTTTTTTTTTTTTTTTTTT",
"TTTTTTTTTTTTTTTTTTTTTTTTTTTTTTTTTTTTTTTTTTTTTTTTTTTTTTTTTTTTTTTTTTTTTTTTTTTTTTTTTTTTTTTTTTTTTTTTTTTTTTTTTTTTTTTTTTTTTTTTTTTTTTTTTTTTTTTTTTTTTTTTTTTTTT",
"TTTTTTTTTTTTTTTTTTTTTTTTTTTTTTTTTTTTTTTTTTTTTTTTTTTTTTTTTTTTTTTTTTTTTTTTTTTTTTTTTTTTTTTTTTTTTTTTTTTTTTTTTTTTTTTTTTTTTTTTTTTTTTTTTTTTTTTTTTTTTTTTTTTTTT",
"TTTTTTTTTTTTTTTTTTTTTTTTTTTTTTTTTTTTTTTTTTTTTTTTTTTTTTTTTTTTTTTTTTTTTTTTTTTTTTTTTTTTTTTTTTTTTTTTTTTTTTTTTTTTTTTTTTTTTTTTTTTTTTTTTTTTTTTTTTTTTTTTTTTTTT",
"TTTTTTTTTTTTTTTTTTTTTTTTTTTTTTTTTTTTTTTTTTTTTTTTTTTTTTTTTTTTTTTTTTTTTTTTTTTTTTTTTTTTTTTTTTTTTTTTTTTTTTTTTTTTTTTTTTTTTTTTTTTTTTTTTTTTTTTTTTTTTTTTTTTTTT",
"TTTTTTTTTTTTTTTTTTTTTTTTTTTTTTTTTTTTTTTTTTTTTTTTTTTTTTTTTTTTTTTTTTTTTTTTTTTTTTTTTTTTTTTTTTTTTTTTTTTTTTTTTTTTTTTTTTTTTTTTTTTTTTTTTTTTTTTTTTTTTTTTTTTTTT",
"TTTTTTTTTTTTTTTTTTTTTTTTTTTTTTTTTTTTTTTTTTTTTTTTTTTTTTTTTTTTTTTTTTTTTTTTTTTTTTTTTTTTTTTTTTTTTTTTTTTTTTTTTTTTTTTTTTTTTTTTTTTTTTTTTTTTTTTTTTTTTTTTTTTTTT",
"TTTTTTTTTTTTTTTTTTTTTTTTTTTTTTTTTTTTTTTTTTTTTTTTTTTTTTTTTTTTTTTTTTTTTTTTTTTTTTTTTTTTTTTTTTTTTTTTTTTTTTTTTTTTTTTTTTTTTTTTTTTTTTTTTTTTTTTTTTTTTTTTTTTTTT",
"TTTTTTTTTTTT ...... TTTTTTTTTTT ..... #TTTTTTTTTTTTTTTTTTTTTTTTTTTTTTTTTTTTTTTTTTTTTTTTTTTTTTTTTTTTTTTTTTTTTTTTTTTTTTTTTTTTTTTTTTTTTTTTTTTTTTTTTTTTTTT",
"TTTTTTTTTTTT        ..TTTTTTT..       #TTTTTTTTTTTTTTTTTTTTTTTTTTTTTTTTTTTTTTTTTTTTTTTTTTTTTTTTTTTTTTTTTTTTTTTTTTTTTTTTTTTTTTTTTTTTTTTTTTTTTTTTTTTTTTT",
"TTTTTTTTTTo#qttttttpf..TTTTT..ftttttttw#+TTTTTTTTTTTTTTTTTTTTTTTTTTTTTTTTTTTTTTTTTTTTTTTTTTTTTTTTTTTTTTTTTTTTTTTTTTTTTTTTTTTTTTTTTTTTTTTTTTTTTTTTTTTTT",
"TTTTTTTTTT  ifdufdddf  TTTT.. fdddddfgt  TTTTTTTTTTTTTTTTTTTTTTTTTTTTTTTTTTTTTTTTTTTTTTTTTTTTTTTTTTTTTTTTTTTTTTTTTTTTTTTTTTTTTTTTTTTTTTTTTTTTTTTTTTTTT",
"TTTTTTTTO%qqdulBadddff TTTT@fffdddddddy6-##TTTTTTTTTTTTTTTTTTTTTTTTTTTTTTTTTTTTTTTTTTTTTTTTTTTTTTTTTTTTTTTTTTTTTTTTTTTTTTTTTTTTTTTTTTTTTTTTTTTTTTTTTTT",
"TTTTTTTT  aguyVZadfdfd TTTT ffdfddddddu98  TTTTTTTTTTTTTTTTTTTTTTTTTTTTTTTTTTTTTTTTTTTTTTTTTTTTTTTTTTTTTTTTTTTTTTTTTTTTTTTTTTTTTTTTTTTTTTTTTTTTTTTTTTT",
"TTTTTTTT XyylBhhudddfd TTTT tdufddddfdu98  TTTTTTTTTTTTTTTTTTTTTTTTTTTTTTTTTTTTTTTTTTTTTTTTTTTTTTTTTTTTTTTTTTTTTTTTTTTTTTTTTTTTTTTTTTTTTTTTTTTTTTTTTTT",
"TTTTTTTT XuyVCuffdfufd  TTT  dddddddfdu98  TTTTTTTTTTTTTTTTTTTTTTTTTTTTTTTTTTTTTTTTTTTTTTTTTTTTTTTTTTTTTTTTTTTTTTTTTTTTTTTTTTTTTTTTTTTTTTTTTTTTTTTTTTT",
"TTTTTTTT XuyVZuddffdddd  TTT fddddddfdu98  TTTTTTTTTTTTTTTTTTTTTTTTTTTTTTTTTTTTTTTTTTTTTTTTTTTTTTTTTTTTTTTTTTTTTTTTTTTTTTTTTTTTTTTTTTTTTTTTTTTTTTTTTTT",
"TTTTTTTT XuyVZyfududdddd TTT dfdddddfdu98.                                                               . . . O                             .TTTTTTTT",
"TTTTTTTT .uujkfddddddddd TTT dddddfdutt98  nnnnnnnnnb< 4nnnnnnnnnnnnnnnnnnnnnbnbnn< xnbnbnnnnnnbbbbnbnbbnnnnvnn<  cnnnnnnnnnnnnnnnnnnnnnnnnnn..TTTTTTT",
"TTTTTTTT  addfdddddddddd TT  dddddfda9998  YYYYYYYYYY2 nYYYYYYYYYYYYYYYYYYYYYYYYYY1 GYYYYYYYYYYYYYYYYYYYYYYYYYY<  LYYYYYYYYYYYYYYYYYYYYYYYYYY  .TTTTTT",
"TTTTTTTTT.=-addddddddddd TT ddddffytt98*  YYYYYYYYYYY2 nYYYYYYYYYYYYYYYYYYYYYYYYYY1 SYYYYYYYYYYYYYYYYYYYYYYYYYY#  LYYYYYYYYYYYYYYYYYYYYYYYYYYzx..TTTTT",
"TTTTTTTTTT  iffddddddddd TT dddddfr9995  YYYYYYYYYYYY2 nYYYYYYYYYYYYYYYYYYYYYYYYYY1 SYYYYYYYYYYYYYYYYYYYYYYYYYY%  LYYYYYYYYYYYYYYYYYYYYYYYYYYJK. TTTTT",
"TTTTTTTTTTT.-6udddfdddd  TT dffdyet98=  YYYYYYYYYYYYY2 nYYYYYYYYYYYYYYYYYYYYYYYYYY1 SYYYYYYYYYYYYYYYYYYYYYYYYYY#  LYYYYYYYYYYYYYYYYYYYYYYYYYYDFO TTTTT",
"TTTTTTTTTTTT  egfuddddd TT  dfddr9996 OYYYYYYYYYYYYYY2 MYYYYYYYYYYYYYYYYYYYYYYYYYY1 SYYYYYYYYYYYYYYYYYYYYYYYYYY<  LYYYYYYYYYYYYYYYYYYYYYYYYYYFFO TTTTT",
"TTTTTTTTTTTTT.58ydddddd T  fdfyrt98=  YYYYYYYYYYYYYYY2 MYYYYYYYYYYYYYYYYYYYYYYYYYY2 SYYYYYYYYYYYYYYYYYYYYYYYYYY<  LYYYYYYYYYYYYYYYYYYYYYYYYYYFFO TTTTT",
"TTTTTTTTTTTTTT  tgddddd   dddde99t6  YYYYYYYYYYYYYYYY2 NYYYYYYYYYYYYYYYYYYYYYYYYYY1 SYYYYYYYYYYYYYYYYYYYYYYYYYY<  LYYYYYYYYYYYYYYYYYYYYYYYYYYFFO TTTTT",
"TTTTTTTTTTTTTTT.-8rfddddddddyrt98=; YYYYYYYYYYYYYYYYY2 MYYYYYYYYYYYYYYYYYYYYYYYYYY1 SYYYYYYYYYYYYYYYYYYYYYYYYYY&  LYYYYYYYYYYYYYYYYYYYYYYYYPPFFO TTTTT",
"TTTTTTTTTTTTTTTT  qfdddddffde999-  YYYYYYYYYYYYYYYYYY3 MYYYYYYYYYYYYYYYYYYYYYYYYYY1 SYYYYYYYYYYYYYYYYYYYYYYYYYY&  LYYYYYYYYYYYYYYYYYYYYYYYYFFFKo TTTTT",
"TTTTTTTTTTTTTTTTT.6qtrdfddurt986  YYYYYYYYYYYYYYYYYYP1 nYYYYYYYYYYYYYYYYYYYYYYYYYP1 NYYYYYYYYYYYYYYYYYYYYYYYYYP&  HPPPPPPPPPPPPPPPPPPPPPPPPFFvn..TTTTT",
"TTTTTTTTTTTTTTTTTT. 69rffdt999=  KJJKKKKKKKKKKKKKKGFD2 cFDJFKKFKKDDDFFKFKFFFKHKFFD< vFFDFKFFFFFKKJKKKDFKFKKKDJK<  NFFFFFFFFFFDDDDDDDDDFFFFFFK  .TTTTTT",
"TTTTTTTTTTTTTTTTTTT.:6tyyyt986* JANNNMMMMMMMMMMMNMNNM< xMMmMMMNMMMMMNNNNMMMMMMNNNM< xNMNNNNNNNNMMMMNNNNMNNNNNNN<  vNNNNNNNNNNNNNNNNNNNNNNNNNN##TTTTTTT",
"TTTTTTTTTTTTTTTTTTTT. -99999*                                                                                                                .TTTTTTTT",
"TTTTTTTTTTTTTTTTTTTTT@;68985>###############################################################################################################OTTTTTTTTT",
"TTTTTTTTTTTTTTTTTTTTTT. :p* .TTTTTTTTTTTTTTTTTTTTTTTTTTTTTTTTTTTTTTTTTTTTTTTTTTTTTTTTTTTTTTTTTTTTTTTTTTTTTTTTTTTTTTTTTTTTTTTTTTTTTTTTTTTTTTTTTTTTTTTTT",
"TTTTTTTTTTTTTTTTTTTTTTT@>7,oTTTTTTTTTTTTTTTTTTTTTTTTTTTTTTTTTTTTTTTTTTTTTTTTTTTTTTTTTTTTTTTTTTTTTTTTTTTTTTTTTTTTTTTTTTTTTTTTTTTTTTTTTTTTTTTTTTTTTTTTTT",
"TTTTTTTTTTTTTTTTTTTTTTTT. .TTTTTTTTTTTTTTTTTTTTTTTTTTTTTTTTTTTTTTTTTTTTTTTTTTTTTTTTTTTTTTTTTTTTTTTTTTTTTTTTTTTTTTTTTTTTTTTTTTTTTTTTTTTTTTTTTTTTTTTTTTT",
"TTTTTTTTTTTTTTTTTTTTTTTTT TTTTTTTTTTTTTTTTTTTTTTTTTTTTTTTTTTTTTTTTTTTTTTTTTTTTTTTTTTTTTTTTTTTTTTTTTTTTTTTTTTTTTTTTTTTTTTTTTTTTTTTTTTTTTTTTTTTTTTTTTTTT",
"TTTTTTTTTTTTTTTTTTTTTTTTTTTTTTTTTTTTTTTTTTTTTTTTTTTTTTTTTTTTTTTTTTTTTTTTTTTTTTTTTTTTTTTTTTTTTTTTTTTTTTTTTTTTTTTTTTTTTTTTTTTTTTTTTTTTTTTTTTTTTTTTTTTTTT",
"TTTTTTTTTTTTTTTTTTTTTTTTTTTTTTTTTTTTTTTTTTTTTTTTTTTTTTTTTTTTTTTTTTTTTTTTTTTTTTTTTTTTTTTTTTTTTTTTTTTTTTTTTTTTTTTTTTTTTTTTTTTTTTTTTTTTTTTTTTTTTTTTTTTTTT",
"TTTTTTTTTTTTTTTTTTTTTTTTTTTTTTTTTTTTTTTTTTTTTTTTTTTTTTTTTTTTTTTTTTTTTTTTTTTTTTTTTTTTTTTTTTTTTTTTTTTTTTTTTTTTTTTTTTTTTTTTTTTTTTTTTTTTTTTTTTTTTTTTTTTTTT",
"TTTTTTTTTTTTTTTTTTTTTTTTTTTTTTTTTTTTTTTTTTTTTTTTTTTTTTTTTTTTTTTTTTTTTTTTTTTTTTTTTTTTTTTTTTTTTTTTTTTTTTTTTTTTTTTTTTTTTTTTTTTTTTTTTTTTTTTTTTTTTTTTTTTTTT",
"TTTTTTTTTTTTTTTTTTTTTTTTTTTTTTTTTTTTTTTTTTTTTTTTTTTTTTTTTTTTTTTTTTTTTTTTTTTTTTTTTTTTTTTTTTTTTTTTTTTTTTTTTTTTTTTTTTTTTTTTTTTTTTTTTTTTTTTTTTTTTTTTTTTTTT",
"TTTTTTTTTTTTTTTTTTTTTTTTTTTTTTTTTTTTTTTTTTTTTTTTTTTTTTTTTTTTTTTTTTTTTTTTTTTTTTTTTTTTTTTTTTTTTTTTTTTTTTTTTTTTTTTTTTTTTTTTTTTTTTTTTTTTTTTTTTTTTTTTTTTTTT",
"TTTTTTTTTTTTTTTTTTTTTTTTTTTTTTTTTTTTTTTTTTTTTTTTTTTTTTTTTTTTTTTTTTTTTTTTTTTTTTTTTTTTTTTTTTTTTTTTTTTTTTTTTTTTTTTTTTTTTTTTTTTTTTTTTTTTTTTTTTTTTTTTTTTTTT",
"TTTTTTTTTTTTTTTTTTTTTTTTTTTTTTTTTTTTTTTTTTTTTTTTTTTTTTTTTTTTTTTTTTTTTTTTTTTTTTTTTTTTTTTTTTTTTTTTTTTTTTTTTTTTTTTTTTTTTTTTTTTTTTTTTTTTTTTTTTTTTTTTTTTTTT",
"TTTTTTTTTTTTTTTTTTTTTTTTTTTTTTTTTTTTTTTTTTTTTTTTTTTTTTTTTTTTTTTTTTTTTTTTTTTTTTTTTTTTTTTTTTTTTTTTTTTTTTTTTTTTTTTTTTTTTTTTTTTTTTTTTTTTTTTTTTTTTTTTTTTTTT",
"TTTTTTTTTTTTTTTTTTTTTTTTTTTTTTTTTTTTTTTTTTTTTTTTTTTTTTTTTTTTTTTTTTTTTTTTTTTTTTTTTTTTTTTTTTTTTTTTTTTTTTTTTTTTTTTTTTTTTTTTTTTTTTTTTTTTTTTTTTTTTTTTTTTTTT",
"TTTTTTTTTTTTTTTTTTTTTTTTTTTTTTTTTTTTTTTTTTTTTTTTTTTTTTTTTTTTTTTTTTTTTTTTTTTTTTTTTTTTTTTTTTTTTTTTTTTTTTTTTTTTTTTTTTTTTTTTTTTTTTTTTTTTTTTTTTTTTTTTTTTTTT"
};
