/* XPM */
static const char *health_1_4[] = {
/* columns rows colors chars-per-pixel */
"150 50 91 1 ",
"  c black",
". c #080909",
"X c #140604",
"o c #071219",
"O c #19191B",
"+ c #300A0C",
"@ c #211E27",
"# c #192121",
"$ c #2A2828",
"% c #2A2A2A",
"& c #3C3030",
"* c #303B39",
"= c #400000",
"- c #550000",
"; c #6D0508",
": c #780C09",
"> c #631612",
", c #751518",
"< c #6C1F22",
"1 c #4C2326",
"2 c #5E2826",
"3 c #772D2A",
"4 c #6E3C3D",
"5 c #434243",
"6 c #4B5A54",
"7 c gray32",
"8 c #60524F",
"9 c #606060",
"0 c gray43",
"q c #7B7B7B",
"w c #850000",
"e c #840604",
"r c #9E0000",
"t c #980908",
"y c #A40000",
"u c #A60000",
"i c #B30E11",
"p c #A71016",
"a c #C60000",
"s c #CE0105",
"d c #C70B0E",
"f c #D30000",
"g c #DB0000",
"h c #D60F16",
"j c #C41015",
"k c #DF1114",
"l c #E00000",
"z c #E20002",
"x c #E40000",
"c c #F00300",
"v c #CD1E21",
"b c #D93232",
"n c #B54D51",
"m c #AF5051",
"M c #B7595A",
"N c #8D6366",
"B c #E24A44",
"V c #E75B59",
"C c #F77C7B",
"Z c #7F8788",
"A c #8E8F8E",
"S c #9B9D9F",
"D c #A8AAAA",
"F c #AFB2AE",
"G c #B1B1B0",
"H c #B2B1BD",
"J c #B2BBBB",
"K c #B2BBBD",
"L c #F68583",
"P c #FF9898",
"I c #FD9EA5",
"U c #F9A1A1",
"Y c #B3C5C3",
"T c gray79",
"R c #CCD5D9",
"E c #CCD5DD",
"W c #D4D4D5",
"Q c #D9D5DC",
"! c #D1DDDD",
"~ c #ECC4C1",
"^ c #ECCDC3",
"/ c #E3CCD0",
"( c #F4DEDE",
") c #D6DCE4",
"_ c #E6E6E6",
"` c #F8E2E7",
"' c #F2F4F6",
"] c gray99",
"[ c #FDFFFC",
"{ c white",
"} c None",
/* pixels */
"}}}}}}}}}}}}}}}}}}}}}}}}}}}}}}}}}}}}}}}}}}}}}}}}}}}}}}}}}}}}}}}}}}}}}}}}}}}}}}}}}}}}}}}}}}}}}}}}}}}}}}}}}}}}}}}}}}}}}}}}}}}}}}}}}}}}}}}}}}}}}}}}}}}}}}",
"}}}}}}}}}}}}}}}}}}}}}}}}}}}}}}}}}}}}}}}}}}}}}}}}}}}}}}}}}}}}}}}}}}}}}}}}}}}}}}}}}}}}}}}}}}}}}}}}}}}}}}}}}}}}}}}}}}}}}}}}}}}}}}}}}}}}}}}}}}}}}}}}}}}}}}",
"}}}}}}}}}}}}}}}}}}}}}}}}}}}}}}}}}}}}}}}}}}}}}}}}}}}}}}}}}}}}}}}}}}}}}}}}}}}}}}}}}}}}}}}}}}}}}}}}}}}}}}}}}}}}}}}}}}}}}}}}}}}}}}}}}}}}}}}}}}}}}}}}}}}}}}",
"}}}}}}}}}}}}}}}}}}}}}}}}}}}}}}}}}}}}}}}}}}}}}}}}}}}}}}}}}}}}}}}}}}}}}}}}}}}}}}}}}}}}}}}}}}}}}}}}}}}}}}}}}}}}}}}}}}}}}}}}}}}}}}}}}}}}}}}}}}}}}}}}}}}}}}",
"}}}}}}}}}}}}}}}}}}}}}}}}}}}}}}}}}}}}}}}}}}}}}}}}}}}}}}}}}}}}}}}}}}}}}}}}}}}}}}}}}}}}}}}}}}}}}}}}}}}}}}}}}}}}}}}}}}}}}}}}}}}}}}}}}}}}}}}}}}}}}}}}}}}}}}",
"}}}}}}}}}}}}}}}}}}}}}}}}}}}}}}}}}}}}}}}}}}}}}}}}}}}}}}}}}}}}}}}}}}}}}}}}}}}}}}}}}}}}}}}}}}}}}}}}}}}}}}}}}}}}}}}}}}}}}}}}}}}}}}}}}}}}}}}}}}}}}}}}}}}}}}",
"}}}}}}}}}}}}}}}}}}}}}}}}}}}}}}}}}}}}}}}}}}}}}}}}}}}}}}}}}}}}}}}}}}}}}}}}}}}}}}}}}}}}}}}}}}}}}}}}}}}}}}}}}}}}}}}}}}}}}}}}}}}}}}}}}}}}}}}}}}}}}}}}}}}}}}",
"}}}}}}}}}}}}}}}}}}}}}}}}}}}}}}}}}}}}}}}}}}}}}}}}}}}}}}}}}}}}}}}}}}}}}}}}}}}}}}}}}}}}}}}}}}}}}}}}}}}}}}}}}}}}}}}}}}}}}}}}}}}}}}}}}}}}}}}}}}}}}}}}}}}}}}",
"}}}}}}}}}}}}}}}}}}}}}}}}}}}}}}}}}}}}}}}}}}}}}}}}}}}}}}}}}}}}}}}}}}}}}}}}}}}}}}}}}}}}}}}}}}}}}}}}}}}}}}}}}}}}}}}}}}}}}}}}}}}}}}}}}}}}}}}}}}}}}}}}}}}}}}",
"}}}}}}}}}}}}}}}}}}}}}}}}}}}}}}}}}}}}}}}}}}}}}}}}}}}}}}}}}}}}}}}}}}}}}}}}}}}}}}}}}}}}}}}}}}}}}}}}}}}}}}}}}}}}}}}}}}}}}}}}}}}}}}}}}}}}}}}}}}}}}}}}}}}}}}",
"}}}}}}}}}}}} ...... }}}}}}}}}}} ..... $}}}}}}}}}}}}}}}}}}}}}}}}}}}}}}}}}}}}}}}}}}}}}}}}}}}}}}}}}}}}}}}}}}}}}}}}}}}}}}}}}}}}}}}}}}}}}}}}}}}}}}}}}}}}}}}",
"}}}}}}}}}}}}        ..}}}}}}}..       $}}}}}}}}}}}}}}}}}}}}}}}}}}}}}}}}}}}}}}}}}}}}}}}}}}}}}}}}}}}}}}}}}}}}}}}}}}}}}}}}}}}}}}}}}}}}}}}}}}}}}}}}}}}}}}}",
"}}}}}}}}}}o$iddddddj1..}}}}}..<dddddddp$@}}}}}}}}}}}}}}}}}}}}}}}}}}}}}}}}}}}}}}}}}}}}}}}}}}}}}}}}}}}}}}}}}}}}}}}}}}}}}}}}}}}}}}}}}}}}}}}}}}}}}}}}}}}}}",
"}}}}}}}}}}  hxzgxzzz= ..}}... ;zzzzzxcd  }}}}}}}}}}}}}}}}}}}}}}}}}}}}}}}}}}}}}}}}}}}}}}}}}}}}}}}}}}}}}}}}}}}}}}}}}}}}}}}}}}}}}}}}}}}}}}}}}}}}}}}}}}}}}",
"}}}}}}}}O&iizgCLkzzzji2..}.#<jdzzzzzzzfe:$$}}}}}}}}}}}}}}}}}}}}}}}}}}}}}}}}}}}}}}}}}}}}}}}}}}}}}}}}}}}}}}}}}}}}}}}}}}}}}}}}}}}}}}}}}}}}}}}}}}}}}}}}}}}",
"}}}}}}}}  kcgfPUkzxzxz- ... :czxzzzzzzgyt  }}}}}}}}}}}}}}}}}}}}}}}}}}}}}}}}}}}}}}}}}}}}}}}}}}}}}}}}}}}}}}}}}}}}}}}}}}}}}}}}}}}}}}}}}}}}}}}}}}}}}}}}}}}",
"}}}}}}}} XffCLbbgzzzxzjr4.3idzgxzzzzxzgyt  }}}}}}}}}}}}}}}}}}}}}}}}}}}}}}}}}}}}}}}}}}}}}}}}}}}}}}}}}}}}}}}}}}}}}}}}}}}}}}}}}}}}}}}}}}}}}}}}}}}}}}}}}}}",
"}}}}}}}} XgfPIgxxzxgxzxx; wcxzzzzzzzxzgyt  }}}}}}}}}}}}}}}}}}}}}}}}}}}}}}}}}}}}}}}}}}}}}}}}}}}}}}}}}}}}}}}}}}}}}}}}}}}}}}}}}}}}}}}}}}}}}}}}}}}}}}}}}}}",
"}}}}}}}} XgfPUgzzxxzzzzxjpdgzxzzzzzzxzgyt  }}}}}}}}}}}}}}}}}}}}}}}}}}}}}}}}}}}}}}}}}}}}}}}}}}}}}}}}}}}}}}}}}}}}}}}}}}}}}}}}}}}}}}}}}}}}}}}}}}}}}}}}}}}",
"}}}}}}}} XgfPUfxgzgzzzzzzxzzzzxzzzzzxzgyt.                                                               . . . O                             .}}}}}}}}",
"}}}}}}}} .ggBVxzzzzzzzzzzzzzzzzzzzxzgddyt  GGGGGGGGGF5 qGGGGGGGGGGGGGGGGGGGGGFGFGG5 AGFGFGGGGGGFFFFGFGFFGGGGDGG5  SGGGGGGGGGGGGGGGGGGGGGGGGGG..}}}}}}}",
"}}}}}}}}  kzzxzzzzzzzzzzzzzzzzzzzzxzkyyyt  {{{{{{{{{{9 G{{{{{{{{{{{{{{{{{{{{{{{{{{7 W{{{{{{{{{{{{{{{{{{{{{{{{{{5  _{{{{{{{{{{{{{{{{{{{{{{{{{{  .}}}}}}",
"}}}}}}}}}.;:kzzzzzzzzzzzzzzzzzzzxxfddyt--ewzzzzzzzz({9 G{{{{{{{{{{{{{{{{{{{{{{{{{{7 T{{{{{{{{{{{{{{{{{{{{{{{{{{$  _{{{{{{{{{{{{{{{{{{{{{{{{{{ZA..}}}}}",
"}}}}}}}}}}  hxxzzzzzzzzzzzzzzzzzzxsyyyw  xxzzzzzzxf~{9 G{{{{{{{{{{{{{{{{{{{{{{{{{{7 T{{{{{{{{{{{{{{{{{{{{{{{{{{&  _{{{{{{{{{{{{{{{{{{{{{{{{{{!). }}}}}",
"}}}}}}}}}}}.:egzzzxzzzzzzzzzzxxzfadyt;>NNzzzzzzzzzz/{9 G{{{{{{{{{{{{{{{{{{{{{{{{{{7 T{{{{{{{{{{{{{{{{{{{{{{{{{{$  _{{{{{{{{{{{{{{{{{{{{{{{{{{REO }}}}}",
"}}}}}}}}}}}}  acxgzzzzzzzzzxzxzzsyyye Ozzzzzzzzzzzz`{9 J{{{{{{{{{{{{{{{{{{{{{{{{{{7 T{{{{{{{{{{{{{{{{{{{{{{{{{{5  _{{{{{{{{{{{{{{{{{{{{{{{{{{EEO }}}}}",
"}}}}}}}}}}}}}.wtfzzzzzzzzzzxzxfsdyt;;,,zzzzzzzzzzzz/{9 J{{{{{{{{{{{{{{{{{{{{{{{{{{9 T{{{{{{{{{{{{{{{{{{{{{{{{{{5  _{{{{{{{{{{{{{{{{{{{{{{{{{{EEO }}}}}",
"}}}}}}}}}}}}}}  dczzzzzzzzzzzzayyde +zcxzzzzzxzzkgf~{9 K{{{{{{{{{{{{{{{{{{{{{{{{{{7 T{{{{{{{{{{{{{{{{{{{{{{{{{{5  _{{{{{{{{{{{{{{{{{{{{{{{{{{EEO }}}}}",
"}}}}}}}}}}}}}}}.:tsxzzzzzzzzfsdyt;>+;sssssssssssvva^{9 J{{{{{{{{{{{{{{{{{{{{{{{{{{7 T{{{{{{{{{{{{{{{{{{{{{{{{{{*  _{{{{{{{{{{{{{{{{{{{{{{{{''EEO }}}}}",
"}}}}}}}}}}}}}}}}  ixzzzzzxxzayyy: =yyyyyyyyyyyyyiyy^{0 J{{{{{{{{{{{{{{{{{{{{{{{{{{7 T{{{{{{{{{{{{{{{{{{{{{{{{{{*  _{{{{{{{{{{{{{{{{{{{{{{{{EEE)o }}}}}",
"}}}}}}}}}}}}}}}}}.eidszxzzgsdyte268mmmmmmmmmmmmmMmn/'7 G{{{{{{{{{{{{{{{{{{{{{{{{{'7 K{{{{{{{{{{{{{{{{{{{{{{{{{'*  Q''''''''''''''''''''''''EEDG..}}}}}",
"}}}}}}}}}}}}}}}}}}. eysxxzdyyy; 0)!!))))))))))))))WER9 SER!E))E))RRREE)E)EEE)Q)EER5 DEERE)EEEEE))!)))RE)E)))R!)5  KEEEEEEEEEERRRRRRRRREEEEEE)  .}}}}}}",
"}}}}}}}}}}}}}}}}}}}.,edfffdyte- 7YKKKJJJJJJJJJJJKJKKJ5 AJJHJJJKJJJJJKKKKJJJJJJKKKJ5 AKJKKKKKKKKJJJJKKKKJKKKKKKK5  DKKKKKKKKKKKKKKKKKKKKKKKKKK$$}}}}}}}",
"}}}}}}}}}}}}}}}}}}}}. :yyyyy-                                                                                                                .}}}}}}}}",
"}}}}}}}}}}}}}}}}}}}}}#>etytw<$$$$$$$$$$$$$$$$$$$$$$$$$$$$$$$$$$$$$$$$$$$$$$$$$$$$$$$$$$$$$$$$$$$$$$$$$$$$$$$$$$$$$$$$$$$$$$$$$$$$$$$$$$$$$$$O}}}}}}}}}",
"}}}}}}}}}}}}}}}}}}}}}}. ,j- .}}}}}}}}}}}}}}}}}}}}}}}}}}}}}}}}}}}}}}}}}}}}}}}}}}}}}}}}}}}}}}}}}}}}}}}}}}}}}}}}}}}}}}}}}}}}}}}}}}}}}}}}}}}}}}}}}}}}}}}}}",
"}}}}}}}}}}}}}}}}}}}}}}}#<r2o}}}}}}}}}}}}}}}}}}}}}}}}}}}}}}}}}}}}}}}}}}}}}}}}}}}}}}}}}}}}}}}}}}}}}}}}}}}}}}}}}}}}}}}}}}}}}}}}}}}}}}}}}}}}}}}}}}}}}}}}}}",
"}}}}}}}}}}}}}}}}}}}}}}}}. .}}}}}}}}}}}}}}}}}}}}}}}}}}}}}}}}}}}}}}}}}}}}}}}}}}}}}}}}}}}}}}}}}}}}}}}}}}}}}}}}}}}}}}}}}}}}}}}}}}}}}}}}}}}}}}}}}}}}}}}}}}}",
"}}}}}}}}}}}}}}}}}}}}}}}}} }}}}}}}}}}}}}}}}}}}}}}}}}}}}}}}}}}}}}}}}}}}}}}}}}}}}}}}}}}}}}}}}}}}}}}}}}}}}}}}}}}}}}}}}}}}}}}}}}}}}}}}}}}}}}}}}}}}}}}}}}}}}",
"}}}}}}}}}}}}}}}}}}}}}}}}}}}}}}}}}}}}}}}}}}}}}}}}}}}}}}}}}}}}}}}}}}}}}}}}}}}}}}}}}}}}}}}}}}}}}}}}}}}}}}}}}}}}}}}}}}}}}}}}}}}}}}}}}}}}}}}}}}}}}}}}}}}}}}",
"}}}}}}}}}}}}}}}}}}}}}}}}}}}}}}}}}}}}}}}}}}}}}}}}}}}}}}}}}}}}}}}}}}}}}}}}}}}}}}}}}}}}}}}}}}}}}}}}}}}}}}}}}}}}}}}}}}}}}}}}}}}}}}}}}}}}}}}}}}}}}}}}}}}}}}",
"}}}}}}}}}}}}}}}}}}}}}}}}}}}}}}}}}}}}}}}}}}}}}}}}}}}}}}}}}}}}}}}}}}}}}}}}}}}}}}}}}}}}}}}}}}}}}}}}}}}}}}}}}}}}}}}}}}}}}}}}}}}}}}}}}}}}}}}}}}}}}}}}}}}}}}",
"}}}}}}}}}}}}}}}}}}}}}}}}}}}}}}}}}}}}}}}}}}}}}}}}}}}}}}}}}}}}}}}}}}}}}}}}}}}}}}}}}}}}}}}}}}}}}}}}}}}}}}}}}}}}}}}}}}}}}}}}}}}}}}}}}}}}}}}}}}}}}}}}}}}}}}",
"}}}}}}}}}}}}}}}}}}}}}}}}}}}}}}}}}}}}}}}}}}}}}}}}}}}}}}}}}}}}}}}}}}}}}}}}}}}}}}}}}}}}}}}}}}}}}}}}}}}}}}}}}}}}}}}}}}}}}}}}}}}}}}}}}}}}}}}}}}}}}}}}}}}}}}",
"}}}}}}}}}}}}}}}}}}}}}}}}}}}}}}}}}}}}}}}}}}}}}}}}}}}}}}}}}}}}}}}}}}}}}}}}}}}}}}}}}}}}}}}}}}}}}}}}}}}}}}}}}}}}}}}}}}}}}}}}}}}}}}}}}}}}}}}}}}}}}}}}}}}}}}",
"}}}}}}}}}}}}}}}}}}}}}}}}}}}}}}}}}}}}}}}}}}}}}}}}}}}}}}}}}}}}}}}}}}}}}}}}}}}}}}}}}}}}}}}}}}}}}}}}}}}}}}}}}}}}}}}}}}}}}}}}}}}}}}}}}}}}}}}}}}}}}}}}}}}}}}",
"}}}}}}}}}}}}}}}}}}}}}}}}}}}}}}}}}}}}}}}}}}}}}}}}}}}}}}}}}}}}}}}}}}}}}}}}}}}}}}}}}}}}}}}}}}}}}}}}}}}}}}}}}}}}}}}}}}}}}}}}}}}}}}}}}}}}}}}}}}}}}}}}}}}}}}",
"}}}}}}}}}}}}}}}}}}}}}}}}}}}}}}}}}}}}}}}}}}}}}}}}}}}}}}}}}}}}}}}}}}}}}}}}}}}}}}}}}}}}}}}}}}}}}}}}}}}}}}}}}}}}}}}}}}}}}}}}}}}}}}}}}}}}}}}}}}}}}}}}}}}}}}",
"}}}}}}}}}}}}}}}}}}}}}}}}}}}}}}}}}}}}}}}}}}}}}}}}}}}}}}}}}}}}}}}}}}}}}}}}}}}}}}}}}}}}}}}}}}}}}}}}}}}}}}}}}}}}}}}}}}}}}}}}}}}}}}}}}}}}}}}}}}}}}}}}}}}}}}",
"}}}}}}}}}}}}}}}}}}}}}}}}}}}}}}}}}}}}}}}}}}}}}}}}}}}}}}}}}}}}}}}}}}}}}}}}}}}}}}}}}}}}}}}}}}}}}}}}}}}}}}}}}}}}}}}}}}}}}}}}}}}}}}}}}}}}}}}}}}}}}}}}}}}}}}"
};
