/* XPM */
static xpm_row_t sprite[] = {
/* columns rows colors chars-per-pixel */
"86 128 7 1 ",
"  c #000001",
". c #000000",
"X c #E2B007",
"o c #204080",
"O c #F4B990",
"+ c #F2CDA0",
"@ c #FFFFFF",
/* pixels */
"                                ......................                                ",
"                                ......................                                ",
"                                ......................                                ",
"                      .............oooooooooooooooo.............                      ",
"                      .............oooooooooooooooo.............                      ",
"                ........ooooooXXXXXooooooooooooooooXXXXXoooooo........                ",
"                ........ooooooXXXXXooooooooooooooooXXXXXoooooo........                ",
"                ........ooooooXXXXXooooooooooooooooXXXXXoooooo........                ",
"           ........XXXXXooooooooXXXXXXooooooooooXXXXXXooooooooXXXXX........           ",
"           ........XXXXXooooooooXXXXXXooooooooooXXXXXXooooooooXXXXX........           ",
"           ........XXXXXooooooooXXXXXXooooooooooXXXXXXooooooooXXXXX........           ",
"           ...XXXXXXXXXXXXXooooooooXXXXXooooooXXXXXooooooooXXXXXXXXXXXXX...           ",
"           ...XXXXXXXXXXXXXooooooooXXXXXooooooXXXXXooooooooXXXXXXXXXXXXX...           ",
"           ...ooXXXXXXXXXXXXXXooooooooXXooooooXXooooooooXXXXXXXXXXXXXXoo...           ",
"           ...ooXXXXXXXXXXXXXXooooooooXXooooooXXooooooooXXXXXXXXXXXXXXoo...           ",
"           ...ooXXXXXXXXXXXXXXooooooooXXooooooXXooooooooXXXXXXXXXXXXXXoo...           ",
"        ...ooooooooXXXXXXXXXXXXXooo................oooXXXXXXXXXXXXXoooooooo...        ",
"        ...ooooooooXXXXXXXXXXXXXooo................oooXXXXXXXXXXXXXoooooooo...        ",
"        ...ooooooooXXXXXXXXXXXXXooo................oooXXXXXXXXXXXXXoooooooo...        ",
"        ...oooooooooooooXXXXXX.....++++++++++++++++.....XXXXXXooooooooooooo...        ",
"        ...oooooooooooooXXXXXX.....++++++++++++++++.....XXXXXXooooooooooooo...        ",
"        ...XXXXXooooooooooo...++++++++++++++++++++++++++...oooooooooooXXXXX...        ",
"        ...XXXXXooooooooooo...++++++++++++++++++++++++++...oooooooooooXXXXX...        ",
"        ...XXXXXooooooooooo...++++++++++++++++++++++++++...oooooooooooXXXXX...        ",
"        ...XXXXXXXXXXXoo...++++++++++++++++++++++++++++++++...ooXXXXXXXXXXX...        ",
"        ...XXXXXXXXXXXoo...++++++++++++++++++++++++++++++++...ooXXXXXXXXXXX...        ",
"        ...XXXXXXXXXXXoo...++++++++++++++++++++++++++++++++...ooXXXXXXXXXXX...        ",
"      ..XXXXXXXXXXXXXX..++++++++......++++++++++......++++++++..XXXXXXXXXXXXXX..      ",
"      ..XXXXXXXXXXXXXX..++++++++......++++++++++......++++++++..XXXXXXXXXXXXXX..      ",
"      ..XXXXXXXXXXXXXX..++++++++++++++..++++++..++++++++++++++..XXXXXXXXXXXXXX..      ",
"      ..XXXXXXXXXXXXXX..++++++++++++++..++++++..++++++++++++++..XXXXXXXXXXXXXX..      ",
"      ..XXXXXXXXXXXXXX..++++++++++++++..++++++..++++++++++++++..XXXXXXXXXXXXXX..      ",
"      ..ooooooooooo...+++++...........++++++++++...........+++++...ooooooooooo..      ",
"      ..ooooooooooo...+++++...........++++++++++...........+++++...ooooooooooo..      ",
"      ..ooooooooooo...+++++...........++++++++++...........+++++...ooooooooooo..      ",
"      ..ooooooooooo...+++++@@@.....@@@++++++++++@@@.....@@@+++++...ooooooooooo..      ",
"      ..ooooooooooo...+++++@@@.....@@@++++++++++@@@.....@@@+++++...ooooooooooo..      ",
"   ...XXXXXXXXXXXXX...++++++++++++++++++++++++++++++++++++++++++...XXXXXXXXXXXXX...   ",
"   ...XXXXXXXXXXXXX...++++++++++++++++++++++++++++++++++++++++++...XXXXXXXXXXXXX...   ",
"   ...XXXXXXXXXXXXX...++++++++++++++++++++++++++++++++++++++++++...XXXXXXXXXXXXX...   ",
"   ...XXXXXXXXXXXXX...++++++++++++++++++......++++++++++++++++++...XXXXXXXXXXXXX...   ",
"   ...XXXXXXXXXXXXX...++++++++++++++++++......++++++++++++++++++...XXXXXXXXXXXXX...   ",
"   ...XXXXXXXXXXXXX...++++++++++++++++++......++++++++++++++++++...XXXXXXXXXXXXX...   ",
"   ...ooooooooooooo...++++++++++++++++++++++++++++++++++++++++++...ooooooooooooo...   ",
"   ...ooooooooooooo...++++++++++++++++++++++++++++++++++++++++++...ooooooooooooo...   ",
"   ...oooooooooooooooo..++++++++++++++++++++++++++++++++++++++..oooooooooooooooo...   ",
"   ...oooooooooooooooo..++++++++++++++++++++++++++++++++++++++..oooooooooooooooo...   ",
"   ...oooooooooooooooo..++++++++++++++++++++++++++++++++++++++..oooooooooooooooo...   ",
"...XXXXXXXXXXXXXXXXXXX..++++++++++++++..........++++++++++++++..XXXXXXXXXXXXXXXXXXX...",
"...XXXXXXXXXXXXXXXXXXX..++++++++++++++..........++++++++++++++..XXXXXXXXXXXXXXXXXXX...",
"...XXXXXXXXXXXXXXXXXXX..++++++++++++++..........++++++++++++++..XXXXXXXXXXXXXXXXXXX...",
"...XXXXXXXXXXXXXXXXXXXXX...++++++++...++++++++++...++++++++...XXXXXXXXXXXXXXXXXXXXX...",
"...XXXXXXXXXXXXXXXXXXXXX...++++++++...++++++++++...++++++++...XXXXXXXXXXXXXXXXXXXXX...",
"........ooooooooooooooooooo...++++++++++++++++++++++++++...ooooooooooooooooooo........",
"........ooooooooooooooooooo...++++++++++++++++++++++++++...ooooooooooooooooooo........",
"........ooooooooooooooooooo...++++++++++++++++++++++++++...ooooooooooooooooooo........",
"        ......oooooooooooooooo.....++++++++++++++++.....oooooooooooooooo......        ",
"        ......oooooooooooooooo.....++++++++++++++++.....oooooooooooooooo......        ",
"        ......oooooooooooooooo.....++++++++++++++++.....oooooooooooooooo......        ",
"              ..........XXXXXXXX......................XXXXXXXX..........              ",
"              ..........XXXXXXXX......................XXXXXXXX..........              ",
"           ...++++++++++...XXX..++++++++++++++++++++++..XXX...++++++++++...           ",
"           ...++++++++++...XXX..++++++++++++++++++++++..XXX...++++++++++...           ",
"           ...++++++++++...XXX..++++++++++++++++++++++..XXX...++++++++++...           ",
"        ...++++++++++++++++...++++++++++++++++++++++++++...++++++++++++++++...        ",
"        ...++++++++++++++++...++++++++++++++++++++++++++...++++++++++++++++...        ",
"        ...++++++++++++++++...++++++++++++++++++++++++++...++++++++++++++++...        ",
"        ...+++++++++++++++++++++++++++++++++++++++++++.....++++++++++++++++...        ",
"        ...+++++++++++++++++++++++++++++++++++++++++++.....++++++++++++++++...        ",
"        ...+++++++++++++++++++++++++++++++++++++......@@...++++++++++++++++...        ",
"        ...+++++++++++++++++++++++++++++++++++++......@@...++++++++++++++++...        ",
"        ...+++++++++++++++++++++++++++++++++++++......@@...++++++++++++++++...        ",
"        ...++++++++++++++++++++++++++++++++.....@@@@@@@@@@@...+++++++++++++...        ",
"        ...++++++++++++++++++++++++++++++++.....@@@@@@@@@@@...+++++++++++++...        ",
"        ...++++++++++++++++++++++++++++++++.....@@@@@@@@@@@...+++++++++++++...        ",
"           ...++++++++++++++++++++++++++...@@@@@@@@@@@@@@@@...++++++++++...           ",
"           ...++++++++++++++++++++++++++...@@@@@@@@@@@@@@@@...++++++++++...           ",
"           ...++++++++++...++++++++.....@@@@@@@@@@@@@@@@@@@...++++++++++...           ",
"           ...++++++++++...++++++++.....@@@@@@@@@@@@@@@@@@@...++++++++++...           ",
"           ...++++++++++...++++++++.....@@@@@@@@@@@@@@@@@@@...++++++++++...           ",
"              ..++++++.....+++.....@@@@@@@@@@@@@@@@@@@@@@@@.....++++++..              ",
"              ..++++++.....+++.....@@@@@@@@@@@@@@@@@@@@@@@@.....++++++..              ",
"              ..++++++.....+++.....@@@@@@@@@@@@@@@@@@@@@@@@.....++++++..              ",
"           ...++++++++........@@@@@@@@@@@@@@@@@@@@@@@@@@@@@.....++++++++...           ",
"           ...++++++++........@@@@@@@@@@@@@@@@@@@@@@@@@@@@@.....++++++++...           ",
"           ...XXXXX...  ...@@@@@@@@@@@@@@@@@@@@@@@@@@@@@@@@...  ...XXXXX...           ",
"           ...XXXXX...  ...@@@@@@@@@@@@@@@@@@@@@@@@@@@@@@@@...  ...XXXXX...           ",
"           ...XXXXX...  ...@@@@@@@@@@@@@@@@@@@@@@@@@@@@@@@@...  ...XXXXX...           ",
"           ...XXooo...  ......@@@@@@@@@@@@@@@@@@@@@@@@@@......  ...oooXX...           ",
"           ...XXooo...  ......@@@@@@@@@@@@@@@@@@@@@@@@@@......  ...oooXX...           ",
"           ...XXooo...  ......@@@@@@@@@@@@@@@@@@@@@@@@@@......  ...oooXX...           ",
"              ..ooo...     ...@@@@@@@@@@@@@@@@@@@@@@@@@@...     ...ooo..              ",
"              ..ooo...     ...@@@@@@@@@@@@@@@@@@@@@@@@@@...     ...ooo..              ",
"           ...++++++++..   ...@@@@@@@@@@@@@@@@@@@@@@@@@@...   ..OOOOOOOO...           ",
"           ...++++++++..   ...@@@@@@@@@@@@@@@@@@@@@@@@@@...   ..OOOOOOOO...           ",
"           ...++++++++..   ...@@@@@@@@@@@@@@@@@@@@@@@@@@...   ..OOOOOOOO...           ",
"           ...++++++++..   ...@@@@@@@@@@@@@@@@@@@@@@@@@@...   ..OOOOOOOO...           ",
"           ...++++++++..   ...@@@@@@@@@@@@@@@@@@@@@@@@@@...   ..OOOOOOOO...           ",
"           ...++++++++..   ...@@@@@@@@@@@@@@@@@@@@@@@@@@...   ..OOOOOOOO...           ",
"              ........     ................................     ........              ",
"              ........     ................................     ........              ",
"                           ...+++++...          ...+++++...                           ",
"                           ...+++++...          ...+++++...                           ",
"                           ...+++++...          ...+++++...                           ",
"                        ...+++++......          ......+++++...                        ",
"                        ...+++++......          ......+++++...                        ",
"                        ...+++++......          ......+++++...                        ",
"                      ..++++++++...                ...++++++++..                      ",
"                      ..++++++++...                ...++++++++..                      ",
"                      ..+++XXXXX...                ...XXXXX+++..                      ",
"                      ..+++XXXXX...                ...XXXXX+++..                      ",
"                      ..+++XXXXX...                ...XXXXX+++..                      ",
"                        ...ooooo...                ...ooooo...                        ",
"                        ...ooooo...                ...ooooo...                        ",
"                        ...ooooo...                ...ooooo...                        ",
"                      ..++++++++...                ...++++++++..                      ",
"                      ..++++++++...                ...++++++++..                      ",
"                ...........++++++++...          ...++++++++...........                ",
"                ...........++++++++...          ...++++++++...........                ",
"                ...........++++++++...          ...++++++++...........                ",
"              .....+++.............                .............+++.....              ",
"              .....+++.............                .............+++.....              ",
"              .....+++.............                .............+++.....              ",
"              ..++++++++......                          ......++++++++..              ",
"              ..++++++++......                          ......++++++++..              ",
"              .............                                .............              ",
"              .............                                .............              ",
"              .............                                .............              "
};
