/* XPM */
static const char *pharaoh_idle_back_0[] = {
/* columns rows colors chars-per-pixel */
"96 96 13 1 ",
"  c black",
". c #162440",
"X c #A38315",
"o c #E2B007",
"O c #F2BD08",
"+ c #204080",
"@ c #2D59B3",
"# c #B39F88",
"$ c gray75",
"% c #D9B88F",
"& c #F2CDA0",
"* c white",
"= c None",
/* pixels */
"==============================                                    ==============================",
"==============================                                    ==============================",
"==============================                                    ==============================",
"========================      @@@OOOOOO@@@OOO@@@+++ooo+++oooooo+++      ========================",
"========================      @@@OOOOOO@@@OOO@@@+++ooo+++oooooo+++      ========================",
"========================      @@@OOOOOO@@@OOO@@@+++ooo+++oooooo+++      ========================",
"=====================   @@@OOO+++ooo++++++ooo++++++ooo++++++ooo+++ooo...   =====================",
"=====================   @@@OOO+++ooo++++++ooo++++++ooo++++++ooo+++ooo...   =====================",
"=====================   @@@OOO+++ooo++++++ooo++++++ooo++++++ooo+++ooo...   =====================",
"=====================   +++ooo+++ooo++++++ooo++++++ooo++++++ooo+++ooo...   =====================",
"=====================   +++ooo+++ooo++++++ooo++++++ooo++++++ooo+++ooo...   =====================",
"=====================   +++ooo+++ooo++++++ooo++++++ooo++++++ooo+++ooo...   =====================",
"=====================   ++++++ooo+++ooo+++ooo++++++ooo+++ooo+++ooo+++...   =====================",
"=====================   ++++++ooo+++ooo+++ooo++++++ooo+++ooo+++ooo+++...   =====================",
"=====================   ++++++ooo+++ooo+++ooo++++++ooo+++ooo+++ooo+++...   =====================",
"==================   OOO++++++ooo+++ooo+++ooo++++++ooo+++ooo+++ooo++++++XXX   ==================",
"==================   OOO++++++ooo+++ooo+++ooo++++++ooo+++ooo+++ooo++++++XXX   ==================",
"==================   OOO++++++ooo+++ooo+++ooo++++++ooo+++ooo+++ooo++++++XXX   ==================",
"==================   +++ooo++++++oooooo+++ooo++++++ooo+++oooooo++++++ooo...   ==================",
"==================   +++ooo++++++oooooo+++ooo++++++ooo+++oooooo++++++ooo...   ==================",
"==================   +++ooo++++++oooooo+++ooo++++++ooo+++oooooo++++++ooo...   ==================",
"==================   oooooo++++++oooooo+++ooo++++++ooo+++oooooo++++++oooXXX   ==================",
"==================   oooooo++++++oooooo+++ooo++++++ooo+++oooooo++++++oooXXX   ==================",
"==================   oooooo++++++oooooo+++ooo++++++ooo+++oooooo++++++oooXXX   ==================",
"==================   +++oooooo+++ooo+++oooooo++++++oooooo+++ooo+++oooooo...   ==================",
"==================   +++oooooo+++ooo+++oooooo++++++oooooo+++ooo+++oooooo...   ==================",
"==================   +++oooooo+++ooo+++oooooo++++++oooooo+++ooo+++oooooo...   ==================",
"===============   ooo+++oooooo++++++ooooooooo++++++ooooooooo++++++oooooo+++XXX   ===============",
"===============   ooo+++oooooo++++++ooooooooo++++++ooooooooo++++++oooooo+++XXX   ===============",
"===============   ooo+++oooooo++++++ooooooooo++++++ooooooooo++++++oooooo+++XXX   ===============",
"===============   +++ooo+++oooooo+++oooooo+++oooooo+++oooooo+++oooooo+++ooo...   ===============",
"===============   +++ooo+++oooooo+++oooooo+++oooooo+++oooooo+++oooooo+++ooo...   ===============",
"===============   +++ooo+++oooooo+++oooooo+++oooooo+++oooooo+++oooooo+++ooo...   ===============",
"===============   ooo+++ooo+++oooooooooooo+++oooooo+++oooooooooooo+++ooo+++XXX   ===============",
"===============   ooo+++ooo+++oooooooooooo+++oooooo+++oooooooooooo+++ooo+++XXX   ===============",
"===============   ooo+++ooo+++oooooooooooo+++oooooo+++oooooooooooo+++ooo+++XXX   ===============",
"===============   +++ooo+++ooo+++ooo+++oooooooooooooooooo+++ooo+++ooo+++ooo...   ===============",
"===============   +++ooo+++ooo+++ooo+++oooooooooooooooooo+++ooo+++ooo+++ooo...   ===============",
"===============   +++ooo+++ooo+++ooo+++oooooooooooooooooo+++ooo+++ooo+++ooo...   ===============",
"============   ooo++++++oooooooooooooooooooooooooooooooooooooooooooooooo++++++XXX   ============",
"============   ooo++++++oooooooooooooooooooooooooooooooooooooooooooooooo++++++XXX   ============",
"============   ooo++++++oooooooooooooooooooooooooooooooooooooooooooooooo++++++XXX   ============",
"============   +++oooooo++++++oooooooooooooooooooooooooooooooooooo++++++oooXXX...   ============",
"============   +++oooooo++++++oooooooooooooooooooooooooooooooooooo++++++oooXXX...   ============",
"============   +++oooooo++++++oooooooooooooooooooooooooooooooooooo++++++oooXXX...   ============",
"===============      +++oooooo+++oooooooooooooooooooooooooooooo+++oooXXX...      ===============",
"===============      +++oooooo+++oooooooooooooooooooooooooooooo+++oooXXX...      ===============",
"===============      +++oooooo+++oooooooooooooooooooooooooooooo+++oooXXX...      ===============",
"=====================      +++ooooooooooooooooooooooooooooooXXXXXX...      =====================",
"=====================      +++ooooooooooooooooooooooooooooooXXXXXX...      =====================",
"=====================      +++ooooooooooooooooooooooooooooooXXXXXX...      =====================",
"===========================         oooooooooooooooXXXXXXXXX         ===========================",
"===========================         oooooooooooooooXXXXXXXXX         ===========================",
"===========================         oooooooooooooooXXXXXXXXX         ===========================",
"========================   &&&%%%%%%         oooXXX         %%%%%%###   ========================",
"========================   &&&%%%%%%         oooXXX         %%%%%%###   ========================",
"========================   &&&%%%%%%         oooXXX         %%%%%%###   ========================",
"=====================   &&&%%%%%%%%%   ***         %%%%%%%%%%%%%%%%%%###   =====================",
"=====================   &&&%%%%%%%%%   ***         %%%%%%%%%%%%%%%%%%###   =====================",
"=====================   &&&%%%%%%%%%   ***         %%%%%%%%%%%%%%%%%%###   =====================",
"=====================   %%%%%%%%%%%%   ******      %%%%%%%%%%%%%%%%%%###   =====================",
"=====================   %%%%%%%%%%%%   ******      %%%%%%%%%%%%%%%%%%###   =====================",
"=====================   %%%%%%%%%%%%   ******      %%%%%%%%%%%%%%%%%%###   =====================",
"=====================   %%%%%%###   ***************   %%%###   %%%%%%###   =====================",
"=====================   %%%%%%###   ***************   %%%###   %%%%%%###   =====================",
"=====================   %%%%%%###   ***************   %%%###   %%%%%%###   =====================",
"========================   %%%###   ******************   ###   %%%###   ========================",
"========================   %%%###   ******************   ###   %%%###   ========================",
"========================   %%%###   ******************   ###   %%%###   ========================",
"========================   oooXXX   ******************$$$      oooXXX   ========================",
"========================   oooXXX   ******************$$$      oooXXX   ========================",
"========================   oooXXX   ******************$$$      oooXXX   ========================",
"========================   +++   ===   ***************$$$   ===   ...   ========================",
"========================   +++   ===   ***************$$$   ===   ...   ========================",
"========================   +++   ===   ***************$$$   ===   ...   ========================",
"=====================   %%%%%%   ===   ***************$$$   ===   %%%###   =====================",
"=====================   %%%%%%   ===   ***************$$$   ===   %%%###   =====================",
"=====================   %%%%%%   ===   ***************$$$   ===   %%%###   =====================",
"=====================   %%%%%%   ===                        ===   ######   =====================",
"=====================   %%%%%%   ===                        ===   ######   =====================",
"=====================   %%%%%%   ===                        ===   ######   =====================",
"========================      ===   ######   ======   ######   ===      ========================",
"========================      ===   ######   ======   ######   ===      ========================",
"========================      ===   ######   ======   ######   ===      ========================",
"=================================   ooo   ============   ooo   =================================",
"=================================   ooo   ============   ooo   =================================",
"=================================   ooo   ============   ooo   =================================",
"===========================         +++   ============   +++         ===========================",
"===========================         +++   ============   +++         ===========================",
"===========================         +++   ============   +++         ===========================",
"===========================   ###   %%%   ============   %%%   ###   ===========================",
"===========================   ###   %%%   ============   %%%   ###   ===========================",
"===========================   ###   %%%   ============   %%%   ###   ===========================",
"===========================               ============               ===========================",
"===========================               ============               ===========================",
"===========================               ============               ==========================="
};
