/* XPM */
static const char *pharaoh_idle_back_1[] = {
/* columns rows colors chars-per-pixel */
"96 96 13 1 ",
"  c black",
". c #162440",
"X c #A38315",
"o c #E2B007",
"O c #F2BD08",
"+ c #204080",
"@ c #2D59B3",
"# c #B39F88",
"$ c gray75",
"% c #D9B88F",
"& c #F2CDA0",
"* c white",
"= c None",
/* pixels */
"==============================                                    ==============================",
"==============================                                    ==============================",
"==============================                                    ==============================",
"========================      @@@OOOOOO@@@OOO@@@+++ooo+++oooooo+++      ========================",
"========================      @@@OOOOOO@@@OOO@@@+++ooo+++oooooo+++      ========================",
"========================      @@@OOOOOO@@@OOO@@@+++ooo+++oooooo+++      ========================",
"=====================   @@@OOO+++ooo++++++ooo++++++ooo++++++ooo+++ooo...   =====================",
"=====================   @@@OOO+++ooo++++++ooo++++++ooo++++++ooo+++ooo...   =====================",
"=====================   @@@OOO+++ooo++++++ooo++++++ooo++++++ooo+++ooo...   =====================",
"=====================   +++ooo++++++ooo+++ooo++++++ooo+++ooo++++++ooo...   =====================",
"=====================   +++ooo++++++ooo+++ooo++++++ooo+++ooo++++++ooo...   =====================",
"=====================   +++ooo++++++ooo+++ooo++++++ooo+++ooo++++++ooo...   =====================",
"=====================   ++++++ooo+++ooo+++ooo++++++ooo+++ooo+++ooo+++...   =====================",
"=====================   ++++++ooo+++ooo+++ooo++++++ooo+++ooo+++ooo+++...   =====================",
"=====================   ++++++ooo+++ooo+++ooo++++++ooo+++ooo+++ooo+++...   =====================",
"==================   OOO++++++ooo+++ooo+++ooo++++++ooo+++ooo+++ooo++++++XXX   ==================",
"==================   OOO++++++ooo+++ooo+++ooo++++++ooo+++ooo+++ooo++++++XXX   ==================",
"==================   OOO++++++ooo+++ooo+++ooo++++++ooo+++ooo+++ooo++++++XXX   ==================",
"==================   +++ooo++++++oooooo+++ooo++++++ooo+++oooooo++++++ooo...   ==================",
"==================   +++ooo++++++oooooo+++ooo++++++ooo+++oooooo++++++ooo...   ==================",
"==================   +++ooo++++++oooooo+++ooo++++++ooo+++oooooo++++++ooo...   ==================",
"==================   oooooo++++++ooo+++oooooo++++++oooooo+++ooo++++++oooXXX   ==================",
"==================   oooooo++++++ooo+++oooooo++++++oooooo+++ooo++++++oooXXX   ==================",
"==================   oooooo++++++ooo+++oooooo++++++oooooo+++ooo++++++oooXXX   ==================",
"==================   +++oooooo+++ooo+++oooooo++++++oooooo+++ooo+++oooooo...   ==================",
"==================   +++oooooo+++ooo+++oooooo++++++oooooo+++ooo+++oooooo...   ==================",
"==================   +++oooooo+++ooo+++oooooo++++++oooooo+++ooo+++oooooo...   ==================",
"===============   ooo++++++oooooo+++oooooo+++oooooo+++oooooo+++oooooo++++++XXX   ===============",
"===============   ooo++++++oooooo+++oooooo+++oooooo+++oooooo+++oooooo++++++XXX   ===============",
"===============   ooo++++++oooooo+++oooooo+++oooooo+++oooooo+++oooooo++++++XXX   ===============",
"===============   +++ooo+++oooooo+++oooooo+++oooooo+++oooooo+++oooooo+++ooo...   ===============",
"===============   +++ooo+++oooooo+++oooooo+++oooooo+++oooooo+++oooooo+++ooo...   ===============",
"===============   +++ooo+++oooooo+++oooooo+++oooooo+++oooooo+++oooooo+++ooo...   ===============",
"===============   ooo+++ooo+++oooooo+++oooooooooooooooooo+++oooooo+++ooo+++XXX   ===============",
"===============   ooo+++ooo+++oooooo+++oooooooooooooooooo+++oooooo+++ooo+++XXX   ===============",
"===============   ooo+++ooo+++oooooo+++oooooooooooooooooo+++oooooo+++ooo+++XXX   ===============",
"===============   +++ooooooooo+++oooooooooooooooooooooooooooooo+++ooooooooo...   ===============",
"===============   +++ooooooooo+++oooooooooooooooooooooooooooooo+++ooooooooo...   ===============",
"===============   +++ooooooooo+++oooooooooooooooooooooooooooooo+++ooooooooo...   ===============",
"============   oooooo++++++oooooooooooooooooooooooooooooooooooooooooo++++++oooXXX   ============",
"============   oooooo++++++oooooooooooooooooooooooooooooooooooooooooo++++++oooXXX   ============",
"============   oooooo++++++oooooooooooooooooooooooooooooooooooooooooo++++++oooXXX   ============",
"============   ++++++oooooo+++oooooooooooooooooooooooooooooooooooo+++XXXXXX......   ============",
"============   ++++++oooooo+++oooooooooooooooooooooooooooooooooooo+++XXXXXX......   ============",
"============   ++++++oooooo+++oooooooooooooooooooooooooooooooooooo+++XXXXXX......   ============",
"===============            oooooooooooooooooooooooooooooooooXXXXXXXXX            ===============",
"===============            oooooooooooooooooooooooooooooooooXXXXXXXXX            ===============",
"===============            oooooooooooooooooooooooooooooooooXXXXXXXXX            ===============",
"===========================         oooooooooooooooXXXXXXXXX         ===========================",
"===========================         oooooooooooooooXXXXXXXXX         ===========================",
"===========================         oooooooooooooooXXXXXXXXX         ===========================",
"========================   &&&%%%%%%         oooXXX         %%%%%%###   ========================",
"========================   &&&%%%%%%         oooXXX         %%%%%%###   ========================",
"========================   &&&%%%%%%         oooXXX         %%%%%%###   ========================",
"=====================   &&&%%%%%%%%%   ***         %%%%%%%%%%%%%%%%%%###   =====================",
"=====================   &&&%%%%%%%%%   ***         %%%%%%%%%%%%%%%%%%###   =====================",
"=====================   &&&%%%%%%%%%   ***         %%%%%%%%%%%%%%%%%%###   =====================",
"=====================   %%%%%%%%%%%%   ******      %%%%%%%%%%%%%%%%%%###   =====================",
"=====================   %%%%%%%%%%%%   ******      %%%%%%%%%%%%%%%%%%###   =====================",
"=====================   %%%%%%%%%%%%   ******      %%%%%%%%%%%%%%%%%%###   =====================",
"=====================   %%%%%%###   ***************   %%%###   %%%%%%###   =====================",
"=====================   %%%%%%###   ***************   %%%###   %%%%%%###   =====================",
"=====================   %%%%%%###   ***************   %%%###   %%%%%%###   =====================",
"========================   %%%###   ******************   ###   %%%###   ========================",
"========================   %%%###   ******************   ###   %%%###   ========================",
"========================   %%%###   ******************   ###   %%%###   ========================",
"========================   oooXXX   ******************$$$      oooXXX   ========================",
"========================   oooXXX   ******************$$$      oooXXX   ========================",
"========================   oooXXX   ******************$$$      oooXXX   ========================",
"========================   +++   ===   ***************$$$   ===   ...   ========================",
"========================   +++   ===   ***************$$$   ===   ...   ========================",
"========================   +++   ===   ***************$$$   ===   ...   ========================",
"=====================   %%%%%%   ===   ***************$$$   ===   %%%###   =====================",
"=====================   %%%%%%   ===   ***************$$$   ===   %%%###   =====================",
"=====================   %%%%%%   ===   ***************$$$   ===   %%%###   =====================",
"=====================   %%%%%%   ===                        ===   ######   =====================",
"=====================   %%%%%%   ===                        ===   ######   =====================",
"=====================   %%%%%%   ===                        ===   ######   =====================",
"========================      ======   ###   ======   ###   ======      ========================",
"========================      ======   ###   ======   ###   ======      ========================",
"========================      ======   ###   ======   ###   ======      ========================",
"=================================   %%%%%%   ======   %%%%%%   =================================",
"=================================   %%%%%%   ======   %%%%%%   =================================",
"=================================   %%%%%%   ======   %%%%%%   =================================",
"=================================   ooo   ============   ooo   =================================",
"=================================   ooo   ============   ooo   =================================",
"=================================   ooo   ============   ooo   =================================",
"===========================         +++   ============   +++         ===========================",
"===========================         +++   ============   +++         ===========================",
"===========================         +++   ============   +++         ===========================",
"===========================   ###   %%%   ============   %%%   ###   ===========================",
"===========================   ###   %%%   ============   %%%   ###   ===========================",
"===========================   ###   %%%   ============   %%%   ###   ===========================",
"===========================               ============               ===========================",
"===========================               ============               ===========================",
"===========================               ============               ==========================="
};
