/* XPM */
static const char *pharaoh_idle_up_1[] = {
/* columns rows colors chars-per-pixel */
"72 96 13 1 ",
"  c black",
". c #162440",
"X c #A38315",
"o c #E2B007",
"O c #F2BD08",
"+ c #204080",
"@ c #2D59B3",
"# c #B39F88",
"$ c gray75",
"% c #D9B88F",
"& c #F2CDA0",
"* c white",
"= c None",
/* pixels */
"==================                                    ==================",
"==================                                    ==================",
"==================                                    ==================",
"============      @@@OOOOOO@@@OOO@@@+++ooo+++oooooo+++      ============",
"============      @@@OOOOOO@@@OOO@@@+++ooo+++oooooo+++      ============",
"============      @@@OOOOOO@@@OOO@@@+++ooo+++oooooo+++      ============",
"=========   @@@OOO+++ooo++++++ooo++++++ooo++++++ooo+++ooo...   =========",
"=========   @@@OOO+++ooo++++++ooo++++++ooo++++++ooo+++ooo...   =========",
"=========   @@@OOO+++ooo++++++ooo++++++ooo++++++ooo+++ooo...   =========",
"=========   +++ooo++++++ooo+++ooo++++++ooo+++ooo++++++ooo...   =========",
"=========   +++ooo++++++ooo+++ooo++++++ooo+++ooo++++++ooo...   =========",
"=========   +++ooo++++++ooo+++ooo++++++ooo+++ooo++++++ooo...   =========",
"=========   ++++++ooo+++ooo+++ooo++++++ooo+++ooo+++ooo+++...   =========",
"=========   ++++++ooo+++ooo+++ooo++++++ooo+++ooo+++ooo+++...   =========",
"=========   ++++++ooo+++ooo+++ooo++++++ooo+++ooo+++ooo+++...   =========",
"======   OOO++++++ooo+++ooo+++ooo++++++ooo+++ooo+++ooo++++++XXX   ======",
"======   OOO++++++ooo+++ooo+++ooo++++++ooo+++ooo+++ooo++++++XXX   ======",
"======   OOO++++++ooo+++ooo+++ooo++++++ooo+++ooo+++ooo++++++XXX   ======",
"======   +++ooo++++++oooooo+++ooo++++++ooo+++oooooo++++++ooo...   ======",
"======   +++ooo++++++oooooo+++ooo++++++ooo+++oooooo++++++ooo...   ======",
"======   +++ooo++++++oooooo+++ooo++++++ooo+++oooooo++++++ooo...   ======",
"======   oooooo++++++ooo+++oooooo++++++oooooo+++ooo++++++oooXXX   ======",
"======   oooooo++++++ooo+++oooooo++++++oooooo+++ooo++++++oooXXX   ======",
"======   oooooo++++++ooo+++oooooo++++++oooooo+++ooo++++++oooXXX   ======",
"======   +++oooooo++++++ooooooooo++++++ooooooooo++++++oooooo...   ======",
"======   +++oooooo++++++ooooooooo++++++ooooooooo++++++oooooo...   ======",
"======   +++oooooo++++++ooooooooo++++++ooooooooo++++++oooooo...   ======",
"===   ooo++++++oooooo+++oooooo+++oooooo+++oooooo+++oooooo++++++XXX   ===",
"===   ooo++++++oooooo+++oooooo+++oooooo+++oooooo+++oooooo++++++XXX   ===",
"===   ooo++++++oooooo+++oooooo+++oooooo+++oooooo+++oooooo++++++XXX   ===",
"===   +++ooo++++++oooooooooooo+++oooooo+++oooooooooooo++++++ooo...   ===",
"===   +++ooo++++++oooooooooooo+++oooooo+++oooooooooooo++++++ooo...   ===",
"===   +++ooo++++++oooooooooooo+++oooooo+++oooooooooooo++++++ooo...   ===",
"===   ooo+++oooooo+++ooo+++oooooooooooooooooo+++ooo+++oooooo+++XXX   ===",
"===   ooo+++oooooo+++ooo+++oooooooooooooooooo+++ooo+++oooooo+++XXX   ===",
"===   ooo+++oooooo+++ooo+++oooooooooooooooooo+++ooo+++oooooo+++XXX   ===",
"===   +++oooooo+++oooooooooooooooooooooooooooooooooooo+++oooooo...   ===",
"===   +++oooooo+++oooooooooooooooooooooooooooooooooooo+++oooooo...   ===",
"===   +++oooooo+++oooooooooooooooooooooooooooooooooooo+++oooooo...   ===",
"   oooooo++++++oooooooooooooooooooooooooooooooooooooooooo++++++oooXXX   ",
"   oooooo++++++oooooooooooooooooooooooooooooooooooooooooo++++++oooXXX   ",
"   oooooo++++++oooooooooooooooooooooooooooooooooooooooooo++++++oooXXX   ",
"   ++++++ooooooooo+++oooooooooooooooooooooooooooXXX...XXXXXXXXX......   ",
"   ++++++ooooooooo+++oooooooooooooooooooooooooooXXX...XXXXXXXXX......   ",
"   ++++++ooooooooo+++oooooooooooooooooooooooooooXXX...XXXXXXXXX......   ",
"===                     oooooooooooooooXXXXXXXXX                     ===",
"===                     oooooooooooooooXXXXXXXXX                     ===",
"===                     oooooooooooooooXXXXXXXXX                     ===",
"============   &&&%%%%%%         oooXXX         %%%%%%###   ============",
"============   &&&%%%%%%         oooXXX         %%%%%%###   ============",
"============   &&&%%%%%%         oooXXX         %%%%%%###   ============",
"=========   &&&%%%%%%%%%   ***         %%%%%%%%%%%%%%%%%%###   =========",
"=========   &&&%%%%%%%%%   ***         %%%%%%%%%%%%%%%%%%###   =========",
"=========   &&&%%%%%%%%%   ***         %%%%%%%%%%%%%%%%%%###   =========",
"=========   %%%%%%%%%%%%   ******      %%%%%%%%%%%%%%%%%%###   =========",
"=========   %%%%%%%%%%%%   ******      %%%%%%%%%%%%%%%%%%###   =========",
"=========   %%%%%%%%%%%%   ******      %%%%%%%%%%%%%%%%%%###   =========",
"=========   %%%%%%###   ***************   %%%###   %%%%%%###   =========",
"=========   %%%%%%###   ***************   %%%###   %%%%%%###   =========",
"=========   %%%%%%###   ***************   %%%###   %%%%%%###   =========",
"============   %%%###   ******************   ###   %%%###   ============",
"============   %%%###   ******************   ###   %%%###   ============",
"============   %%%###   ******************   ###   %%%###   ============",
"============   oooXXX   ******************$$$      oooXXX   ============",
"============   oooXXX   ******************$$$      oooXXX   ============",
"============   oooXXX   ******************$$$      oooXXX   ============",
"============   +++   ===   ***************$$$   ===   ...   ============",
"============   +++   ===   ***************$$$   ===   ...   ============",
"============   +++   ===   ***************$$$   ===   ...   ============",
"=========   %%%%%%   ===   ***************$$$   ===   %%%###   =========",
"=========   %%%%%%   ===   ***************$$$   ===   %%%###   =========",
"=========   %%%%%%   ===   ***************$$$   ===   %%%###   =========",
"=========   %%%%%%   ===                        ===   ######   =========",
"=========   %%%%%%   ===                        ===   ######   =========",
"=========   %%%%%%   ===                        ===   ######   =========",
"============      ======   ###   ======   ###   ======      ============",
"============      ======   ###   ======   ###   ======      ============",
"============      ======   ###   ======   ###   ======      ============",
"========================   %%%   ======   %%%   ========================",
"========================   %%%   ======   %%%   ========================",
"========================   %%%   ======   %%%   ========================",
"=====================   %%%%%%   ======   %%%%%%   =====================",
"=====================   %%%%%%   ======   %%%%%%   =====================",
"=====================   %%%%%%   ======   %%%%%%   =====================",
"=====================   ooo   ============   ooo   =====================",
"=====================   ooo   ============   ooo   =====================",
"=====================   ooo   ============   ooo   =====================",
"===============         +++   ============   +++         ===============",
"===============         +++   ============   +++         ===============",
"===============         +++   ============   +++         ===============",
"===============   ###   %%%   ============   %%%   ###   ===============",
"===============   ###   %%%   ============   %%%   ###   ===============",
"===============   ###   %%%   ============   %%%   ###   ===============",
"===============               ============               ===============",
"===============               ============               ===============",
"===============               ============               ==============="
};
