/* XPM */
static const char *mummy_left_5[] = {
/* columns rows colors chars-per-pixel */
"54 87 7 1 ",
"  c #000000",
". c #7C1BA1",
"X c #999897",
"o c #B3B1B0",
"O c #D8D0C1",
"+ c #F2E9D8",
"@ c #000001",
/* pixels */
"@@@@@@@@@@@@@@@@@@@@@@@@@@@@@@@@@@@@@@@@@@@@@@@@@@@@@@",
"@@@@@@@@@@@@@@@@@@@@@@@@@@@@@@@@@@@@@@@@@@@@@@@@@@@@@@",
"@@@@@@@@@@@@@@@@@@@@@@@@@@@@@@@@@@@@@@@@@@@@@@@@@@@@@@",
"@@@@@@@@@@@@@@@@@@@@@@@@@@@@@@@@@@@@@@@@@@@@@@@@@@@@@@",
"@@@@@@@@@@@@@@@@@@@@@@@@@@@@@@@@@@@@@@@@@@@@@@@@@@@@@@",
"@@@@@@@@@@@@@@@@@@@@@@@@@@@@@@@@@@@@@@@@@@@@@@@@@@@@@@",
"@@@@@@@@@@@@@@@@@@@@@                        @@@@@@@@@",
"@@@@@@@@@@@@@@@@@@@@@                        @@@@@@@@@",
"@@@@@@@@@@@@@@@@@@@@@                        @@@@@@@@@",
"@@@@@@@@@@@@@@@@@@   +++++++++OOOOOOXXXOOOOOO   @@@@@@",
"@@@@@@@@@@@@@@@@@@   +++++++++OOOOOOXXXOOOOOO   @@@@@@",
"@@@@@@@@@@@@@@@@@@   +++++++++OOOOOOXXXOOOOOO   @@@@@@",
"@@@@@@@@@@@@@@@   +++OOOOOOOOOOOOXXXOOOOOOOOOOOO   @@@",
"@@@@@@@@@@@@@@@   +++OOOOOOOOOOOOXXXOOOOOOOOOOOO   @@@",
"@@@@@@@@@@@@@@@   +++OOOOOOOOOOOOXXXOOOOOOOOOOOO   @@@",
"@@@@@@@@@@@@   +++OOOXXXXXXXXXXXXOOOXXXOOOOOOOOOOOO   ",
"@@@@@@@@@@@@   +++OOOXXXXXXXXXXXXOOOXXXOOOOOOOOOOOO   ",
"@@@@@@@@@@@@   +++OOOXXXXXXXXXXXXOOOXXXOOOOOOOOOOOO   ",
"@@@@@@@@@@@@   OOOOOOOOOOOOOOOXXXOOOOOOXXXXXXXXXXXX   ",
"@@@@@@@@@@@@   OOOOOOOOOOOOOOOXXXOOOOOOXXXXXXXXXXXX   ",
"@@@@@@@@@@@@   OOOOOOOOOOOOOOOXXXOOOOOOXXXXXXXXXXXX   ",
"@@@@@@@@@@@@   OOO......OOOOOOOOO......OOOOOOOOOOOO   ",
"@@@@@@@@@@@@   OOO......OOOOOOOOO......OOOOOOOOOOOO   ",
"@@@@@@@@@@@@   OOO......OOOOOOOOO......OOOOOOOOOOOO   ",
"@@@@@@@@@@@@   OOOOOOOOOOOOOOOOOOOOOXXXOOOOOOOOOOOO   ",
"@@@@@@@@@@@@   OOOOOOOOOOOOOOOOOOOOOXXXOOOOOOOOOOOO   ",
"@@@@@@@@@@@@   OOOOOOOOOOOOOOOOOOOOOXXXOOOOOOOOOOOO   ",
"@@@@@@@@@@@@   XXXXXXOOOOOOOOOXXXXXXOOOXXXXXXOOOOOO   ",
"@@@@@@@@@@@@   XXXXXXOOOOOOOOOXXXXXXOOOXXXXXXOOOOOO   ",
"@@@@@@@@@@@@   XXXXXXOOOOOOOOOXXXXXXOOOXXXXXXOOOOOO   ",
"@@@@@@@@@@@@   OOOOOOXXX         OOOOOOOOOOOOXXXXXX   ",
"@@@@@@@@@@@@   OOOOOOXXX         OOOOOOOOOOOOXXXXXX   ",
"@@@@@@@@@@@@   OOOOOOXXX         OOOOOOOOOOOOXXXXXX   ",
"@@@@@@@@@@@@@@@   OOO               OOOOOOOOOOOO   @@@",
"@@@@@@@@@@@@@@@   OOO               OOOOOOOOOOOO   @@@",
"@@@@@@@@@@@@@@@   OOO               OOOOOOOOOOOO   @@@",
"@@@@@@@@@@@@@@@@@@   OOOOOOXXXOOOOOOOOOOOOOOO   @@@@@@",
"@@@@@@@@@@@@@@@@@@   OOOOOOXXXOOOOOOOOOOOOOOO   @@@@@@",
"@@@@@@@@@@@@@@@@@@   OOOOOOXXXOOOOOOOOOOOOOOO   @@@@@@",
"@@@@@@@@@@@@@@@@@@@@@                        @@@@@@@@@",
"@@@@@@@@@@@@@@@@@@@@@                        @@@@@@@@@",
"@@@@@@@@@@@@@@@@@@@@@                        @@@@@@@@@",
"@@@@@@@@@@@@@@@@@@@@@@@@   XXXXXXXXXXXX   @@@@@@@@@@@@",
"@@@@@@@@@@@@@@@@@@@@@@@@   XXXXXXXXXXXX   @@@@@@@@@@@@",
"@@@@@@@@@@@@@@@@@@@@@@@@   XXXXXXXXXXXX   @@@@@@@@@@@@",
"@@@                     +++OOO                     @@@",
"@@@                     +++OOO                     @@@",
"@@@                     +++OOO                     @@@",
"   +++ooo++++++ooo++++++XXX   +++ooo++++++XXXXXXOOO   ",
"   +++ooo++++++ooo++++++XXX   +++ooo++++++XXXXXXOOO   ",
"   +++ooo++++++ooo++++++XXX   +++ooo++++++XXXXXXOOO   ",
"   OOOXXX   OOOXXXXXXOOOXXX   XXXOOO   OOOOOOXXXOOO   ",
"   OOOXXX   OOOXXXXXXOOOXXX   XXXOOO   OOOOOOXXXOOO   ",
"   OOOXXX   OOOXXXXXXOOOXXX   XXXOOO   OOOOOOXXXOOO   ",
"@@@      @@@            OOOOOO      OOO            @@@",
"@@@      @@@            OOOOOO      OOO            @@@",
"@@@      @@@            OOOOOO      OOO            @@@",
"@@@@@@@@@@@@@@@@@@   XXXXXXOOOOOOOOOXXXOOOOOO   @@@@@@",
"@@@@@@@@@@@@@@@@@@   XXXXXXOOOOOOOOOXXXOOOOOO   @@@@@@",
"@@@@@@@@@@@@@@@@@@   XXXXXXOOOOOOOOOXXXOOOOOO   @@@@@@",
"@@@@@@@@@@@@@@@@@@   OOOOOOXXXXXXXXXOOOOOO      @@@@@@",
"@@@@@@@@@@@@@@@@@@   OOOOOOXXXXXXXXXOOOOOO      @@@@@@",
"@@@@@@@@@@@@@@@@@@   OOOOOOXXXXXXXXXOOOOOO      @@@@@@",
"@@@@@@@@@@@@@@@@@@@@@   OOOOOOOOOOOOXXXXXX   @@@@@@@@@",
"@@@@@@@@@@@@@@@@@@@@@   OOOOOOOOOOOOXXXXXX   @@@@@@@@@",
"@@@@@@@@@@@@@@@@@@@@@   OOOOOOOOOOOOXXXXXX   @@@@@@@@@",
"@@@@@@@@@@@@@@@@@@@@@   XXXXXXOOOOOOOOOOOO   @@@@@@@@@",
"@@@@@@@@@@@@@@@@@@@@@   XXXXXXOOOOOOOOOOOO   @@@@@@@@@",
"@@@@@@@@@@@@@@@@@@@@@   XXXXXXOOOOOOOOOOOO   @@@@@@@@@",
"@@@@@@@@@@@@@@@@@@@@@                        @@@@@@@@@",
"@@@@@@@@@@@@@@@@@@@@@                        @@@@@@@@@",
"@@@@@@@@@@@@@@@@@@@@@                        @@@@@@@@@",
"@@@@@@@@@@@@@@@@@@   OOOXXX   @@@@@@   XXXOOO   @@@@@@",
"@@@@@@@@@@@@@@@@@@   OOOXXX   @@@@@@   XXXOOO   @@@@@@",
"@@@@@@@@@@@@@@@@@@   OOOXXX   @@@@@@   XXXOOO   @@@@@@",
"@@@@@@@@@@@@@@@@@@   XXX   @@@@@@@@@@@@   OOO   @@@@@@",
"@@@@@@@@@@@@@@@@@@   XXX   @@@@@@@@@@@@   OOO   @@@@@@",
"@@@@@@@@@@@@@@@@@@   XXX   @@@@@@@@@@@@   OOO   @@@@@@",
"@@@@@@@@@@@@         OOO   @@@@@@         XXX   @@@@@@",
"@@@@@@@@@@@@         OOO   @@@@@@         XXX   @@@@@@",
"@@@@@@@@@@@@         OOO   @@@@@@         XXX   @@@@@@",
"@@@@@@@@@@@@   OOOXXXOOO   @@@@@@   OOOOOOOOO   @@@@@@",
"@@@@@@@@@@@@   OOOXXXOOO   @@@@@@   OOOOOOOOO   @@@@@@",
"@@@@@@@@@@@@   OOOXXXOOO   @@@@@@   OOOOOOOOO   @@@@@@",
"@@@@@@@@@@@@               @@@@@@               @@@@@@",
"@@@@@@@@@@@@               @@@@@@               @@@@@@",
"@@@@@@@@@@@@               @@@@@@               @@@@@@"
};
