/* XPM */
static const char *khopesh_attack_1[] = {
/* columns rows colors chars-per-pixel */
"64 64 7 1 ",
"  c black",
". c #2C1B10",
"X c #A38315",
"o c #E2B007",
"O c #F2BD08",
"+ c #FFF5B5",
"@ c None",
/* pixels */
"++++++++++++++@@@@@@@@@@@@@@@@@@@@@@@@@@@@@@@@@@@@@@@@@@@@@@@@@@",
"++++++++++++++@@@@@@@@@@@@@@@@@@@@@@@@@@@@@@@@@@@@@@@@@@@@@@@@@@",
"++++++++++++++++++++++++@@@@@@@@@@@@@@@@@@@@@@@@@@@@@@@@@@@@@@@@",
"++++++++++++++++++++++++@@@@@@@@@@@@@@@@@@@@@@@@@@@@@@@@@@@@@@@@",
"++++++++++++++++++++++++++++++@@@@@@@@@@@@@@@@@@@@@@@@@@@@@@@@@@",
"++++++++++++++++++++++++++++++@@@@@@@@@@@@@@@@@@@@@@@@@@@@@@@@@@",
"@@@@++++++++++++++++++++++++++++++@@@@@@@@@@@@@@@@@@@@@@@@@@@@@@",
"@@@@++++++++++++++++++++++++++++++@@@@@@@@@@@@@@@@@@@@@@@@@@@@@@",
"@@@@@@@@++++++++++++++++++++++++++++++@@@@@@@@@@@@@@@@@@@@@@@@@@",
"@@@@@@@@++++++++++++++++++++++++++++++@@@@@@@@@@@@@@@@@@@@@@@@@@",
"@@@@@@@@@@++++++++++++++++++++++++++++++@@@@@@@@@@@@@@@@@@@@@@@@",
"@@@@@@@@@@++++++++++++++++++++++++++++++@@@@@@@@@@@@@@@@@@@@@@@@",
"@@@@@@@@@@@@++++++++++++++++++++++++++++++++@@@@@@@@@@@@@@@@@@@@",
"@@@@@@@@@@@@++++++++++++++++++++++++++++++++@@@@@@@@@@@@@@@@@@@@",
"@@@@@@@@@@@@@@++++++++++++++++++++++++++++++++@@@@@@@@@@@@@@@@@@",
"@@@@@@@@@@@@@@++++++++++++++++++++++++++++++++@@@@@@@@@@@@@@@@@@",
"@@@@@@@@@@@@@@@@++++++++++++++++++++++++++++++++@@@@@@@@@@@@@@@@",
"@@@@@@@@@@@@@@@@++++++++++++++++++++++++++++++++@@@@@@@@@@@@@@@@",
"@@@@@@@@@@@@@@@@@@++++++++++++++++++++++++++++++++@@@@@@@@@@@@@@",
"@@@@@@@@@@@@@@@@@@++++++++++++++++++++++++++++++++@@@@@@@@@@@@@@",
"@@@@@@@@@@@@@@@@@@++++++++++++++++++++++++++++++++++@@@@@@@@@@@@",
"@@@@@@@@@@@@@@@@@@++++++++++++++++++++++++++++++++++@@@@@@@@@@@@",
"@@@@@@@@@@@@@@@@@@@@++++++++++++++++++++++++++++++++++@@@@@@@@@@",
"@@@@@@@@@@@@@@@@@@@@++++++++++++++++++++++++++++++++++@@@@@@@@@@",
"@@@@@@@@@@@@@@@@@@@@@@++++++++++++++++++++++++++++++++++@@@@@@@@",
"@@@@@@@@@@@@@@@@@@@@@@++++++++++++++++++++++++++++++++++@@@@@@@@",
"@@@@@@@@@@@@@@@@@@@@@@++++++++++++++++++++++++++++++++++@@@@@@@@",
"@@@@@@@@@@@@@@@@@@@@@@++++++++++++++++++++++++++++++++++@@@@@@@@",
"@@@@@@@@@@@@@@@@@@@@@@++++++++++++++++++++++++++++++++++++@@@@@@",
"@@@@@@@@@@@@@@@@@@@@@@++++++++++++++++++++++++++++++++++++@@@@@@",
"@@@@@@@@@@@@@@@@@@@@@@@@++++++++++++++++++++++++++++++++++@@@@@@",
"@@@@@@@@@@@@@@@@@@@@@@@@++++++++++++++++++++++++++++++++++@@@@@@",
"@@@@@@@@@@@@@@@@@@@@@@@@++++++++++++++++++++++++++++++++++++@@@@",
"@@@@@@@@@@@@@@@@@@@@@@@@++++++++++++++++++++++++++++++++++++@@@@",
"@@@@@@@@@@@@@@@@@@@@@@@@++++++++++++++++++++++++++++++++++++@@@@",
"@@@@@@@@@@@@@@@@@@@@@@@@++++++++++++++++++++++++++++++++++++@@@@",
"@@@@@@@@@@@@@@@@@@@@@@@@++++++++++++++++++++++++++++++++++++++@@",
"@@@@@@@@@@@@@@@@@@@@@@@@++++++++++++++++++++++++++++++++++++++@@",
"@@@@@@@@@@@@@@@@@@@@@@@@++++++++++++++++++++++++++++++++++++++@@",
"@@@@@@@@@@@@@@@@@@@@@@@@++++++++++++++++++++++++++++++++++++++@@",
"@@@@@@@@@@@@@@@@@@@@@@@@++++++++++++++++++++++++++++++++++++++@@",
"@@@@@@@@@@@@@@@@@@@@@@@@++++++++++++++++++++++++++++++++++++++@@",
"@@@@@@@@@@@@@@@@@@@@@@@@++++++++++++++++++++++++++++++++++++++++",
"@@@@@@@@@@@@@@@@@@@@@@@@++++++++++++++++++++++++++++++++++++++++",
"@@@@@@@@@@@@@@@@@@@@@@@@++++++++++++++++++++++++++++++++++++++++",
"@@@@@@@@@@@@@@@@@@@@@@@@++++++++++++++++++++++++++++++++++++++++",
"@@@@@@@@@@@@@@@@@@  @@@@      ++++++++++++++++++++++++        ++",
"@@@@@@@@@@@@@@@@@@  @@@@      ++++++++++++++++++++++++        ++",
"@@                OO    OOOOOO  ++++++++++++++++++++  OOOOOOOO  ",
"@@                OO    OOOOOO  ++++++++++++++++++++  OOOOOOOO  ",
"  oo....oo..oo..ooOOOOOOOOOOOOOO  ++++++++++++++++  OOOOOOOO  @@",
"  oo....oo..oo..ooOOOOOOOOOOOOOO  ++++++++++++++++  OOOOOOOO  @@",
"  oo..oo..oo....oooooooooooo    ++++++++++++++++  oooooooo  @@@@",
"  oo..oo..oo....oooooooooooo    ++++++++++++++++  oooooooo  @@@@",
"@@                oo    oooo  ++++++++++++++++  oooooooo  @@@@@@",
"@@                oo    oooo  ++++++++++++++++  oooooooo  @@@@@@",
"@@@@@@@@@@@@@@@@@@    XXoooooo                oooooooo  @@@@@@@@",
"@@@@@@@@@@@@@@@@@@    XXoooooo                oooooooo  @@@@@@@@",
"@@@@@@@@@@@@@@@@@@@@@@  XXoooooooooooooooooooooooooo  @@@@@@@@@@",
"@@@@@@@@@@@@@@@@@@@@@@  XXoooooooooooooooooooooooooo  @@@@@@@@@@",
"@@@@@@@@@@@@@@@@@@@@@@@@    XXoooooooooooooooooo    @@@@@@@@@@@@",
"@@@@@@@@@@@@@@@@@@@@@@@@    XXoooooooooooooooooo    @@@@@@@@@@@@",
"@@@@@@@@@@@@@@@@@@@@@@@@@@@@                    @@@@@@@@@@@@@@@@",
"@@@@@@@@@@@@@@@@@@@@@@@@@@@@                    @@@@@@@@@@@@@@@@"
};
