/* XPM */
static const char *khopesh_attack_0[] = {
/* columns rows colors chars-per-pixel */
"64 64 6 1 ",
"  c #000000",
". c #2C1B10",
"X c #A38315",
"o c #E2B007",
"O c #F2BD08",
"+ c #000001",
/* pixels */
"++++  ++++++++++++++++++++++++++++++++++++++++++++++++++++++++++",
"++++  ++++++++++++++++++++++++++++++++++++++++++++++++++++++++++",
"++  OO  ++++++++++++++++++++++++++++++++++++++++++++++++++++++++",
"++  OO  ++++++++++++++++++++++++++++++++++++++++++++++++++++++++",
"++  OOOO  ++++++++++++++++++++++++++++++++++++++++++++++++++++++",
"++  OOOO  ++++++++++++++++++++++++++++++++++++++++++++++++++++++",
"++  OOOOoo  ++++++++++++++++++++++++++++++++++++++++++++++++++++",
"++  OOOOoo  ++++++++++++++++++++++++++++++++++++++++++++++++++++",
"++  OOOOoooo  ++++++++++++++++++++++++++++++++++++++++++++++++++",
"++  OOOOoooo  ++++++++++++++++++++++++++++++++++++++++++++++++++",
"++++  OOoooooo  ++++++++++++++++++++++++++++++++++++++++++++++++",
"++++  OOoooooo  ++++++++++++++++++++++++++++++++++++++++++++++++",
"++++++  oooooooo  ++++++++++++++++++++++++++++++++++++++++++++++",
"++++++  oooooooo  ++++++++++++++++++++++++++++++++++++++++++++++",
"++++++++  oooooo  ++++++++++++++++++++++++++++++++++++++++++++++",
"++++++++  oooooo  ++++++++++++++++++++++++++++++++++++++++++++++",
"++++++++++  oooooo  ++++++++++++++++++++++++++++++++++++++++++++",
"++++++++++  oooooo  ++++++++++++++++++++++++++++++++++++++++++++",
"++++++++++++  oooo  ++++++++++++++++++++++++++++++++++++++++++++",
"++++++++++++  oooo  ++++++++++++++++++++++++++++++++++++++++++++",
"++++++++++++  oooo  ++++++++++++++++++++++++++++++++++++++++++++",
"++++++++++++  oooo  ++++++++++++++++++++++++++++++++++++++++++++",
"++++++++++++  oooo  ++++++++++++++++++++++++++++++++++++++++++++",
"++++++++++++  oooo  ++++++++++++++++++++++++++++++++++++++++++++",
"++++++++++++  oooo  ++++++++++++++++++++++++++++++++++++++++++++",
"++++++++++++  oooo  ++++++++++++++++++++++++++++++++++++++++++++",
"++++++++++++  oooo  ++++++++++++++++++++++++++++++++++++++++++++",
"++++++++++++  oooo  ++++++++++++++++++++++++++++++++++++++++++++",
"++++++++++++  oooo  ++++++++++++++++++++++++++++++++++++++++++++",
"++++++++++++  oooo  ++++++++++++++++++++++++++++++++++++++++++++",
"++++++  ++++  oooo  ++++++++++++++++++++++++++++++++++++++++++++",
"++++++  ++++  oooo  ++++++++++++++++++++++++++++++++++++++++++++",
"++++  OO  ++  oooo  ++++++++++++++++++++++++++++++++++++++++++++",
"++++  OO  ++  oooo  ++++++++++++++++++++++++++++++++++++++++++++",
"++  OOOO    ooooXX  ++++++++++++++++++++++++++++++++++++++++++++",
"++  OOOO    ooooXX  ++++++++++++++++++++++++++++++++++++++++++++",
"++  OOOOoooooooo  ++++++++++++++++++++++++++++++++++++++++++++++",
"++  OOOOoooooooo  ++++++++++++++++++++++++++++++++++++++++++++++",
"++  OOOOooooooXX  ++++++++++++++++++++++++++++++++++++++++++++++",
"++  OOOOooooooXX  ++++++++++++++++++++++++++++++++++++++++++++++",
"++++  OOoo  XX  ++++++++++++++++++++++++++++++++++++++++++++++++",
"++++  OOoo  XX  ++++++++++++++++++++++++++++++++++++++++++++++++",
"++++  OOoo    ++++++++++++++++++++++++++++++++++++++++++++++++++",
"++++  OOoo    ++++++++++++++++++++++++++++++++++++++++++++++++++",
"++  OOOOoooo  ++++++++++++++++++++++++++++++++++++++++++++++++++",
"++  OOOOoooo  ++++++++++++++++++++++++++++++++++++++++++++++++++",
"++++  oooo  ++++++++++++++++++++++++++++++++++++++++++++++++++++",
"++++  oooo  ++++++++++++++++++++++++++++++++++++++++++++++++++++",
"++++  ....  ++++++++++++++++++++++++++++++++++++++++++++++++++++",
"++++  ....  ++++++++++++++++++++++++++++++++++++++++++++++++++++",
"++++  oo..  ++++++++++++++++++++++++++++++++++++++++++++++++++++",
"++++  oo..  ++++++++++++++++++++++++++++++++++++++++++++++++++++",
"++++  ..oo  ++++++++++++++++++++++++++++++++++++++++++++++++++++",
"++++  ..oo  ++++++++++++++++++++++++++++++++++++++++++++++++++++",
"++++  oo..  ++++++++++++++++++++++++++++++++++++++++++++++++++++",
"++++  oo..  ++++++++++++++++++++++++++++++++++++++++++++++++++++",
"++++  ..oo  ++++++++++++++++++++++++++++++++++++++++++++++++++++",
"++++  ..oo  ++++++++++++++++++++++++++++++++++++++++++++++++++++",
"++++  ....  ++++++++++++++++++++++++++++++++++++++++++++++++++++",
"++++  ....  ++++++++++++++++++++++++++++++++++++++++++++++++++++",
"++++  oooo  ++++++++++++++++++++++++++++++++++++++++++++++++++++",
"++++  oooo  ++++++++++++++++++++++++++++++++++++++++++++++++++++",
"++++++    ++++++++++++++++++++++++++++++++++++++++++++++++++++++",
"++++++    ++++++++++++++++++++++++++++++++++++++++++++++++++++++"
};
