/* XPM */
static xpm_row_t four_xpm[] = {
"64 64 3 1",
" 	c #000001",
".	c #000000",
"+	c #110B03",
"                                                                ",
"                                                                ",
"                                                                ",
"                                                                ",
"                                                                ",
"                                                                ",
"                                                                ",
"                                                                ",
"                        ....................................    ",
"                        ....................................    ",
"                        ....................................    ",
"                        ....................................    ",
"                        ....................................    ",
"                        ....................................    ",
"          ..................................................    ",
"          ..................................................    ",
"          ..................................................    ",
"          ..................................................    ",
"          ..................................................    ",
"          ..................................................    ",
"          ..................................................    ",
"          ..................................................    ",
"    ..............                            ..............    ",
"    ..............                            ..............    ",
"    ..............                            ............++    ",
"    ..............                            ............++    ",
"    ..............                            ..............    ",
"    ..............                            ..............    ",
"    ........................................................    ",
"    ........................................................    ",
"    ........................................................    ",
"    ........................................................    ",
"    ........................................................    ",
"    ........................................................    ",
"    ........................................................    ",
"    ........................................................    ",
"                                              ..............    ",
"                                              ..............    ",
"                                              ..............    ",
"                                              ..............    ",
"                                              ..............    ",
"                                              ..............    ",
"                                              ..............    ",
"                                              ..............    ",
"                                              ..............    ",
"                                              ..............    ",
"                                              ..............    ",
"                                              ..............    ",
"                                              ..............    ",
"                                              ..............    ",
"                                              ..............    ",
"                                              ..............    ",
"                                              ..............    ",
"                                              ..............    ",
"                                              ..............    ",
"                                              ..............    ",
"                                              ..............    ",
"                                              ..............    ",
"                                                                ",
"                                                                ",
"                                                                ",
"                                                                ",
"                                                                ",
"                                                                "};
