/* XPM */
static xpm_row_t seven_xpm[] = {
"64 64 2 1",
" 	c #000001",
".	c #000000",
"                                                                ",
"                                                                ",
"                                                                ",
"                                                                ",
"                                                                ",
"                                                                ",
"        ............................................            ",
"        ............................................            ",
"      ................................................          ",
"      ................................................          ",
"      ..................................................        ",
"      ..................................................        ",
"      ..................................................        ",
"      ..................................................        ",
"      ..................................................        ",
"      ..................................................        ",
"      ..................................................        ",
"      ..................................................        ",
"      ..................................................        ",
"      ..................................................        ",
"                                        ................        ",
"                                        ................        ",
"                                        ................        ",
"                                        ................        ",
"                                        ................        ",
"                                        ................        ",
"                                    ....................        ",
"                                    ....................        ",
"                                    ..................          ",
"                                    ..................          ",
"                              ....................              ",
"                              ....................              ",
"                              ....................              ",
"                              ....................              ",
"                              ....................              ",
"                              ....................              ",
"                      ......................                    ",
"                      ......................                    ",
"                      ......................                    ",
"                      ......................                    ",
"                      ......................                    ",
"                      ......................                    ",
"                      ......................                    ",
"                      ......................                    ",
"              ......................                            ",
"              ......................                            ",
"              ......................                            ",
"              ......................                            ",
"              ......................                            ",
"              ......................                            ",
"              ................                                  ",
"              ................                                  ",
"        ......................                                  ",
"        ......................                                  ",
"        ......................                                  ",
"        ......................                                  ",
"        ......................                                  ",
"        ......................                                  ",
"                                                                ",
"                                                                ",
"                                                                ",
"                                                                ",
"                                                                ",
"                                                                "};
