/* XPM */
static xpm_row_t zero_xpm[] = {
"64 64 8 1",
" 	c #000001",
".	c #0C0500",
"+	c #000000",
"@	c #17130C",
"#	c #090500",
"$	c #131210",
"%	c #080500",
"&	c #13120E",
"                                                                ",
"                                                                ",
"                                                                ",
"                                                                ",
"                                                                ",
"                                                                ",
"                                                                ",
"                                                                ",
"          ..++++++++++++++++++++++++++++++++++++++@@            ",
"          ..++++++++++++++++++++++++++++++++++++++@@            ",
"          ##++++++++++++++++++++++++++++++++++++++$$            ",
"          ##++++++++++++++++++++++++++++++++++++++$$            ",
"          %%++++++++++++++++++++++++++++++++++++++&&            ",
"          %%++++++++++++++++++++++++++++++++++++++&&            ",
"    ++++++++++++++++++++++++++++++++++++++++++++++++++++++++    ",
"    ++++++++++++++++++++++++++++++++++++++++++++++++++++++++    ",
"    ++++++++++++++++++++++++++++++++++++++++++++++++++++++++    ",
"    ++++++++++++++++++++++++++++++++++++++++++++++++++++++++    ",
"    ++++++++++++++++++++++++++++++++++++++++++++++++++++++++    ",
"    ++++++++++++++++++++++++++++++++++++++++++++++++++++++++    ",
"    ++++++++++++                                ++++++++++++    ",
"    ++++++++++++                                ++++++++++++    ",
"    ++++++++++++                                ++++++++++++    ",
"    ++++++++++++                                ++++++++++++    ",
"    ++++++++++++                                ++++++++++++    ",
"    ++++++++++++                                ++++++++++++    ",
"    ++++++++++++                                ++++++++++++    ",
"    ++++++++++++                                ++++++++++++    ",
"    ++++++++++++                                ++++++++++++    ",
"    ++++++++++++                                ++++++++++++    ",
"    ++++++++++++                                ++++++++++++    ",
"    ++++++++++++                                ++++++++++++    ",
"    ++++++++++++                                ++++++++++++    ",
"    ++++++++++++                                ++++++++++++    ",
"    ++++++++++++                                ++++++++++++    ",
"    ++++++++++++                                ++++++++++++    ",
"    ++++++++++++                                ++++++++++++    ",
"    ++++++++++++                                ++++++++++++    ",
"    ++++++++++++                                ++++++++++++    ",
"    ++++++++++++                                ++++++++++++    ",
"    ++++++++++++                                ++++++++++++    ",
"    ++++++++++++                                ++++++++++++    ",
"    ++++++++++++                                ++++++++++++    ",
"    ++++++++++++                                ++++++++++++    ",
"    ++++++++++++++++++++++++++++++++++++++++++++++++++++++++    ",
"    ++++++++++++++++++++++++++++++++++++++++++++++++++++++++    ",
"    ++++++++++++++++++++++++++++++++++++++++++++++++++++++++    ",
"    ++++++++++++++++++++++++++++++++++++++++++++++++++++++++    ",
"    ++++++++++++++++++++++++++++++++++++++++++++++++++++++++    ",
"    ++++++++++++++++++++++++++++++++++++++++++++++++++++++++    ",
"          ++++++++++++++++++++++++++++++++++++++++++            ",
"          ++++++++++++++++++++++++++++++++++++++++++            ",
"          ++++++++++++++++++++++++++++++++++++++++++            ",
"          ++++++++++++++++++++++++++++++++++++++++++            ",
"          ++++++++++++++++++++++++++++++++++++++++++            ",
"          ++++++++++++++++++++++++++++++++++++++++++            ",
"          ++++++++++++++++++++++++++++++++++++++++++            ",
"          ++++++++++++++++++++++++++++++++++++++++++            ",
"                                                                ",
"                                                                ",
"                                                                ",
"                                                                ",
"                                                                ",
"                                                                "};
